<?xml version="1.0" encoding="utf-8"?>
<!-- Generator: Adobe Illustrator 22.0.1, SVG Export Plug-In . SVG Version: 6.00 Build 0)  -->
<svg version="1.1" id="Layer_1" xmlns="http://www.w3.org/2000/svg" xmlns:xlink="http://www.w3.org/1999/xlink" x="0px" y="0px"
	 viewBox="0 0 1242 2208" style="enable-background:new 0 0 1242 2208;" xml:space="preserve">
<style type="text/css">
	.st0{fill:none;}
	.st1{fill:#4D4D4D;}
	.st2{fill:#999999;}
	.st3{fill:url(#New_Pattern_Swatch_27);}
	.st4{fill:url(#SVGID_1_);}
</style>
<pattern  width="234" height="234" patternUnits="userSpaceOnUse" id="New_Pattern_Swatch_27" viewBox="0 -234 234 234" style="overflow:visible;">
	<g>
		<rect y="-234" class="st0" width="234" height="234"/>
		<rect y="-234" class="st1" width="234" height="234"/>
		<g>
			<path class="st2" d="M91.6-194.3c-1.8,0-3.3-1.5-3.3-3.2s1.5-3.2,3.3-3.2c1.8,0,3.2,1.5,3.2,3.2S93.4-194.3,91.6-194.3z"/>
			<path class="st2" d="M29.9-197.6c0,1.8-1.5,3.2-3.2,3.2c-1.8,0-3.3-1.5-3.3-3.2s1.5-3.2,3.3-3.2S29.9-199.4,29.9-197.6z"/>
			<path class="st2" d="M98.1-158.6c0,1.8-1.5,3.2-3.2,3.2s-3.3-1.5-3.3-3.2s1.5-3.2,3.3-3.2S98.1-160.4,98.1-158.6z"/>
			<path class="st2" d="M94.9-145.6c0,1.8-1.5,3.2-3.2,3.2c-1.8,0-3.3-1.5-3.3-3.2s1.5-3.2,3.3-3.2
				C93.4-148.8,94.9-147.4,94.9-145.6z"/>
			<path class="st2" d="M23.4-155.3c-1.8,0-3.2-1.5-3.2-3.2s1.5-3.2,3.2-3.2s3.3,1.5,3.3,3.2C26.6-156.8,25.2-155.3,23.4-155.3z"/>
			<path class="st2" d="M26.6-148.8c1.8,0,3.3,1.5,3.3,3.2s-1.5,3.2-3.3,3.2s-3.2-1.5-3.2-3.2C23.4-147.4,24.9-148.8,26.6-148.8z"/>
			<path class="st2" d="M62.4-213.8c0,1.8-1.5,3.2-3.2,3.2c-1.8,0-3.3-1.5-3.3-3.2s1.5-3.2,3.3-3.2
				C60.9-217.1,62.4-215.6,62.4-213.8z"/>
			<path class="st2" d="M111-143.3c0.3,0.9,0.1,1.8-0.3,2.6l-9.7,16.2c-0.6,1-1.7,1.6-2.8,1.6c-0.5,0-1.1-0.1-1.6-0.4l-10.8-6.2
				c-7.2-4.1-10.3-13.2-7-20.6C85-164,86-185.4,78-193.2c-10.4-10.2-27.3-10.2-37.6,0c-8,7.8-7,29.2-0.8,43.2
				c3.3,7.4,0.3,16.4-7,20.6l-10.8,6.2c-1.5,0.9-3.5,0.4-4.4-1.1l-9.7-16.2c-0.5-0.8-0.6-1.7-0.3-2.6c0.3-0.9,0.9-1.6,1.7-2l3.8-1.9
				c-2.9-7.2-5.6-15.6-5.6-24.4c0-16.3,5.3-30.9,14.6-40c20.6-20.2,54.2-20.2,74.8,0c9.3,9.1,14.6,23.7,14.5,40
				c0,9-2.7,17.3-5.6,24.4l3.8,1.9C110.1-144.8,110.8-144.1,111-143.3L111-143.3z M99.9-142.7c-1.5-0.8-2.2-2.6-1.5-4.2
				c3.1-7.2,6.2-15.7,6.2-24.7c0-14.6-4.5-27.5-12.6-35.4c-18.1-17.8-47.6-17.8-65.7,0c-8,7.9-12.6,20.8-12.6,35.4
				c0,8.9,3.2,17.5,6.2,24.7c0.7,1.6,0,3.4-1.5,4.2L15-141l6.3,10.5l8.1-4.6c4.3-2.5,6.2-7.9,4.2-12.3c-7.3-16.2-8.1-40.4,2.2-50.4
				c6.4-6.3,14.9-9.5,23.4-9.5c8.5,0,16.9,3.2,23.4,9.5c10.3,10.1,9.4,34.2,2.2,50.4c-2,4.4-0.1,9.8,4.2,12.3l8.1,4.6l6.3-10.5
				L99.9-142.7L99.9-142.7z"/>
			<path class="st2" d="M69.7-215.8c5.1,1.3,9.8,3.5,14.1,6.6c1.5,1,1.8,3.1,0.7,4.5c-0.6,0.9-1.6,1.4-2.6,1.4
				c-0.7,0-1.3-0.2-1.9-0.6c-3.6-2.6-7.6-4.5-11.9-5.6c-1.7-0.4-2.8-2.2-2.3-4S68-216.2,69.7-215.8L69.7-215.8z"/>
			<path class="st2" d="M48.6-215.8c1.7-0.4,3.5,0.6,4,2.3c0.4,1.7-0.6,3.5-2.3,4c-4.3,1.1-8.3,3-11.9,5.6c-0.6,0.4-1.2,0.6-1.9,0.6
				c-1,0-2-0.5-2.6-1.4c-1-1.5-0.7-3.5,0.7-4.5C38.8-212.2,43.5-214.4,48.6-215.8L48.6-215.8z"/>
		</g>
		<g>
			<path class="st2" d="M142.3-155.3c1.8,0,3.3,1.5,3.3,3.2s-1.5,3.2-3.3,3.2c-1.8,0-3.2-1.5-3.2-3.2S140.6-155.3,142.3-155.3z"/>
			<path class="st2" d="M204.1-152.1c0-1.8,1.5-3.2,3.2-3.2c1.8,0,3.3,1.5,3.3,3.2s-1.5,3.2-3.3,3.2
				C205.5-148.8,204.1-150.3,204.1-152.1z"/>
			<path class="st2" d="M135.8-191.1c0-1.8,1.5-3.2,3.2-3.2c1.8,0,3.3,1.5,3.3,3.2s-1.5,3.2-3.3,3.2
				C137.3-187.8,135.8-189.3,135.8-191.1z"/>
			<path class="st2" d="M139.1-204.1c0-1.8,1.5-3.2,3.2-3.2c1.8,0,3.3,1.5,3.3,3.2s-1.5,3.2-3.3,3.2
				C140.6-200.8,139.1-202.3,139.1-204.1z"/>
			<path class="st2" d="M210.6-194.3c1.8,0,3.2,1.5,3.2,3.2s-1.5,3.2-3.2,3.2c-1.8,0-3.3-1.5-3.3-3.2
				C207.3-192.9,208.8-194.3,210.6-194.3z"/>
			<path class="st2" d="M207.3-200.8c-1.8,0-3.3-1.5-3.3-3.2s1.5-3.2,3.3-3.2c1.8,0,3.2,1.5,3.2,3.2
				C210.6-202.3,209.1-200.8,207.3-200.8z"/>
			<path class="st2" d="M171.6-135.8c0-1.8,1.5-3.2,3.2-3.2c1.8,0,3.3,1.5,3.3,3.2s-1.5,3.2-3.3,3.2
				C173-132.6,171.6-134,171.6-135.8z"/>
			<path class="st2" d="M123-206.4c-0.3-0.9-0.1-1.8,0.3-2.6l9.7-16.2c0.6-1,1.7-1.6,2.8-1.6c0.5,0,1.1,0.1,1.6,0.4l10.8,6.2
				c7.2,4.1,10.3,13.2,7,20.6c-6.2,13.9-7.2,35.3,0.8,43.2c10.4,10.2,27.3,10.2,37.6,0c8-7.8,7-29.2,0.8-43.2
				c-3.3-7.4-0.3-16.4,7-20.6l10.8-6.2c1.5-0.9,3.5-0.4,4.4,1.1l9.7,16.2c0.5,0.8,0.6,1.7,0.3,2.6c-0.3,0.9-0.9,1.6-1.7,2l-3.8,1.9
				c2.9,7.2,5.6,15.6,5.6,24.4c0,16.3-5.3,30.9-14.6,40c-20.6,20.2-54.2,20.2-74.8,0c-9.3-9.1-14.6-23.7-14.5-40
				c0-9,2.7-17.3,5.6-24.4l-3.8-1.9C123.8-204.8,123.2-205.5,123-206.4L123-206.4z M134.1-207c1.5,0.8,2.2,2.6,1.5,4.2
				c-3.1,7.2-6.2,15.7-6.2,24.7c0,14.6,4.5,27.5,12.6,35.4c18.1,17.8,47.6,17.8,65.7,0c8-7.9,12.6-20.8,12.6-35.4
				c0-8.9-3.2-17.5-6.2-24.7c-0.7-1.6,0-3.4,1.5-4.2l3.4-1.7l-6.3-10.5l-8.1,4.6c-4.3,2.5-6.2,7.9-4.2,12.3
				c7.3,16.2,8.1,40.4-2.2,50.4c-6.4,6.3-14.9,9.5-23.4,9.5c-8.5,0-16.9-3.2-23.4-9.5c-10.3-10.1-9.4-34.2-2.2-50.4
				c2-4.4,0.1-9.8-4.2-12.3l-8.1-4.6l-6.3,10.5L134.1-207L134.1-207z"/>
			<path class="st2" d="M164.3-133.9c-5.1-1.3-9.8-3.5-14.1-6.6c-1.5-1-1.8-3.1-0.7-4.5c0.6-0.9,1.6-1.4,2.6-1.4
				c0.7,0,1.3,0.2,1.9,0.6c3.6,2.6,7.6,4.5,11.9,5.6c1.7,0.4,2.8,2.2,2.3,4C167.8-134.5,166-133.5,164.3-133.9L164.3-133.9z"/>
			<path class="st2" d="M185.4-133.9c-1.7,0.4-3.5-0.6-4-2.3c-0.4-1.7,0.6-3.5,2.3-4c4.3-1.1,8.3-3,11.9-5.6
				c0.6-0.4,1.2-0.6,1.9-0.6c1,0,2,0.5,2.6,1.4c1,1.5,0.7,3.5-0.7,4.5C195.2-137.4,190.5-135.2,185.4-133.9L185.4-133.9z"/>
		</g>
		<g>
			<path class="st2" d="M90.3-78.6c-1.8,0-3.3-1.5-3.3-3.2s1.5-3.2,3.3-3.2s3.2,1.5,3.2,3.2S92.1-78.6,90.3-78.6z"/>
			<path class="st2" d="M28.6-81.9c0,1.8-1.5,3.2-3.2,3.2s-3.3-1.5-3.3-3.2s1.5-3.2,3.3-3.2C27.1-85.1,28.6-83.7,28.6-81.9z"/>
			<path class="st2" d="M96.8-42.9c0,1.8-1.5,3.2-3.2,3.2c-1.8,0-3.3-1.5-3.3-3.2s1.5-3.2,3.3-3.2C95.4-46.1,96.8-44.7,96.8-42.9z"
				/>
			<path class="st2" d="M93.6-29.9c0,1.8-1.5,3.2-3.2,3.2s-3.3-1.5-3.3-3.2s1.5-3.2,3.3-3.2C92.1-33.1,93.6-31.7,93.6-29.9z"/>
			<path class="st2" d="M22.1-39.6c-1.8,0-3.2-1.5-3.2-3.2s1.5-3.2,3.2-3.2c1.8,0,3.3,1.5,3.3,3.2C25.3-41.1,23.9-39.6,22.1-39.6z"
				/>
			<path class="st2" d="M25.3-33.1c1.8,0,3.3,1.5,3.3,3.2s-1.5,3.2-3.3,3.2c-1.8,0-3.2-1.5-3.2-3.2C22.1-31.7,23.6-33.1,25.3-33.1z"
				/>
			<path class="st2" d="M61.1-98.1c0,1.8-1.5,3.2-3.2,3.2s-3.3-1.5-3.3-3.2s1.5-3.2,3.3-3.2S61.1-99.9,61.1-98.1z"/>
			<path class="st2" d="M109.7-27.6c0.3,0.9,0.1,1.8-0.3,2.6L99.6-8.7c-0.6,1-1.7,1.6-2.8,1.6c-0.5,0-1.1-0.1-1.6-0.4l-10.8-6.2
				c-7.2-4.1-10.3-13.2-7-20.6c6.2-13.9,7.2-35.3-0.8-43.2c-10.4-10.2-27.3-10.2-37.6,0c-8,7.8-7,29.2-0.8,43.2
				c3.3,7.4,0.3,16.4-7,20.6L20.5-7.6c-1.5,0.9-3.5,0.4-4.4-1.1L6.3-25c-0.5-0.8-0.6-1.7-0.3-2.6c0.3-0.9,0.9-1.6,1.7-2l3.8-1.9
				C8.5-38.7,5.9-47,5.9-55.9c0-16.3,5.3-30.9,14.6-40c20.6-20.2,54.2-20.2,74.8,0c9.3,9.1,14.6,23.7,14.5,40c0,9-2.7,17.3-5.6,24.4
				l3.8,1.9C108.8-29.1,109.5-28.4,109.7-27.6L109.7-27.6z M98.6-27c-1.5-0.8-2.2-2.6-1.5-4.2c3.1-7.2,6.2-15.7,6.2-24.7
				c0-14.6-4.5-27.5-12.6-35.4c-18.1-17.8-47.6-17.8-65.7,0c-8,7.9-12.6,20.8-12.6,35.4c0,8.9,3.2,17.5,6.2,24.7
				c0.7,1.6,0,3.4-1.5,4.2l-3.4,1.7L20-14.8l8.1-4.6c4.3-2.5,6.2-7.9,4.2-12.3c-7.3-16.2-8.1-40.4,2.2-50.4
				c6.4-6.3,14.9-9.5,23.4-9.5c8.5,0,16.9,3.2,23.4,9.5c10.3,10.1,9.4,34.2,2.2,50.4c-2,4.4-0.1,9.8,4.2,12.3l8.1,4.6l6.3-10.5
				L98.6-27L98.6-27z"/>
			<path class="st2" d="M68.4-100.1c5.1,1.3,9.8,3.5,14.1,6.6c1.5,1,1.8,3.1,0.7,4.5c-0.6,0.9-1.6,1.4-2.6,1.4
				c-0.7,0-1.3-0.2-1.9-0.6c-3.6-2.6-7.6-4.5-11.9-5.6c-1.7-0.4-2.8-2.2-2.3-4C64.9-99.5,66.7-100.5,68.4-100.1L68.4-100.1z"/>
			<path class="st2" d="M47.3-100.1c1.7-0.4,3.5,0.6,4,2.3c0.4,1.7-0.6,3.5-2.3,4c-4.3,1.1-8.3,3-11.9,5.6c-0.6,0.4-1.2,0.6-1.9,0.6
				c-1,0-2-0.5-2.6-1.4c-1-1.5-0.7-3.5,0.7-4.5C37.5-96.5,42.2-98.7,47.3-100.1L47.3-100.1z"/>
		</g>
		<g>
			<path class="st2" d="M141-39.6c1.8,0,3.3,1.5,3.3,3.2s-1.5,3.2-3.3,3.2c-1.8,0-3.2-1.5-3.2-3.2S139.3-39.6,141-39.6z"/>
			<path class="st2" d="M202.8-36.4c0-1.8,1.5-3.2,3.2-3.2c1.8,0,3.3,1.5,3.3,3.2s-1.5,3.2-3.3,3.2
				C204.2-33.1,202.8-34.6,202.8-36.4z"/>
			<path class="st2" d="M134.5-75.4c0-1.8,1.5-3.2,3.2-3.2c1.8,0,3.3,1.5,3.3,3.2s-1.5,3.2-3.3,3.2C136-72.1,134.5-73.6,134.5-75.4z
				"/>
			<path class="st2" d="M137.8-88.4c0-1.8,1.5-3.2,3.2-3.2c1.8,0,3.3,1.5,3.3,3.2s-1.5,3.2-3.3,3.2
				C139.3-85.1,137.8-86.6,137.8-88.4z"/>
			<path class="st2" d="M209.3-78.6c1.8,0,3.2,1.5,3.2,3.2s-1.5,3.2-3.2,3.2c-1.8,0-3.3-1.5-3.3-3.2C206-77.2,207.5-78.6,209.3-78.6
				z"/>
			<path class="st2" d="M206-85.1c-1.8,0-3.3-1.5-3.3-3.2s1.5-3.2,3.3-3.2c1.8,0,3.2,1.5,3.2,3.2C209.3-86.6,207.8-85.1,206-85.1z"
				/>
			<path class="st2" d="M170.3-20.1c0-1.8,1.5-3.2,3.2-3.2c1.8,0,3.3,1.5,3.3,3.2c0,1.8-1.5,3.2-3.3,3.2
				C171.7-16.9,170.3-18.3,170.3-20.1z"/>
			<path class="st2" d="M121.7-90.7c-0.3-0.9-0.1-1.8,0.3-2.6l9.7-16.2c0.6-1,1.7-1.6,2.8-1.6c0.5,0,1.1,0.1,1.6,0.4l10.8,6.2
				c7.2,4.1,10.3,13.2,7,20.6c-6.2,13.9-7.2,35.3,0.8,43.2c10.4,10.2,27.3,10.2,37.6,0c8-7.8,7-29.2,0.8-43.2
				c-3.3-7.4-0.3-16.4,7-20.6l10.8-6.2c1.5-0.9,3.5-0.4,4.4,1.1l9.7,16.2c0.5,0.8,0.6,1.7,0.3,2.6c-0.3,0.9-0.9,1.6-1.7,2l-3.8,1.9
				c2.9,7.2,5.6,15.6,5.6,24.4c0,16.3-5.3,30.9-14.6,40c-20.6,20.2-54.2,20.2-74.8,0c-9.3-9.1-14.6-23.7-14.5-40
				c0-9,2.7-17.3,5.6-24.4l-3.8-1.9C122.5-89.1,121.9-89.8,121.7-90.7L121.7-90.7z M132.8-91.3c1.5,0.8,2.2,2.6,1.5,4.2
				c-3.1,7.2-6.2,15.7-6.2,24.7c0,14.6,4.5,27.5,12.6,35.4c18.1,17.8,47.6,17.8,65.7,0c8-7.9,12.6-20.8,12.6-35.4
				c0-8.9-3.2-17.5-6.2-24.7c-0.7-1.6,0-3.4,1.5-4.2l3.4-1.7l-6.3-10.5l-8.1,4.6c-4.3,2.5-6.2,7.9-4.2,12.3
				c7.3,16.2,8.1,40.4-2.2,50.4c-6.4,6.3-14.9,9.5-23.4,9.5c-8.5,0-16.9-3.2-23.4-9.5c-10.3-10.1-9.4-34.2-2.2-50.4
				c2-4.4,0.1-9.8-4.2-12.3l-8.1-4.6l-6.3,10.5L132.8-91.3L132.8-91.3z"/>
			<path class="st2" d="M163-18.2c-5.1-1.3-9.8-3.5-14.1-6.6c-1.5-1-1.8-3.1-0.7-4.5c0.6-0.9,1.6-1.4,2.6-1.4c0.7,0,1.3,0.2,1.9,0.6
				c3.6,2.6,7.6,4.5,11.9,5.6c1.7,0.4,2.8,2.2,2.3,4C166.5-18.8,164.7-17.8,163-18.2L163-18.2z"/>
			<path class="st2" d="M184.1-18.2c-1.7,0.4-3.5-0.6-4-2.3c-0.4-1.7,0.6-3.5,2.3-4c4.3-1.1,8.3-3,11.9-5.6c0.6-0.4,1.2-0.6,1.9-0.6
				c1,0,2,0.5,2.6,1.4c1,1.5,0.7,3.5-0.7,4.5C193.9-21.7,189.2-19.5,184.1-18.2L184.1-18.2z"/>
		</g>
	</g>
</pattern>
<rect x="-1071" y="-657" class="st1" width="234" height="234"/>
<g>
	<path class="st2" d="M-976.1-620.6c0-1.8-1.5-3.2-3.2-3.2s-3.3,1.5-3.3,3.2c0,1.8,1.5,3.2,3.3,3.2
		C-977.6-617.3-976.1-618.8-976.1-620.6z"/>
	<path class="st2" d="M-1044.4-623.8c-1.8,0-3.3,1.5-3.3,3.2c0,1.8,1.5,3.2,3.3,3.2c1.8,0,3.2-1.5,3.2-3.2
		C-1041.1-622.4-1042.6-623.8-1044.4-623.8z"/>
	<path class="st2" d="M-976.1-584.8c-1.8,0-3.3,1.5-3.3,3.2c0,1.8,1.5,3.2,3.3,3.2s3.2-1.5,3.2-3.2
		C-972.9-583.4-974.3-584.8-976.1-584.8z"/>
	<path class="st2" d="M-979.4-571.8c-1.8,0-3.3,1.5-3.3,3.2c0,1.8,1.5,3.2,3.3,3.2s3.2-1.5,3.2-3.2
		C-976.1-570.4-977.6-571.8-979.4-571.8z"/>
	<path class="st2" d="M-1044.4-581.6c0-1.8-1.5-3.2-3.3-3.2c-1.8,0-3.2,1.5-3.2,3.2c0,1.8,1.5,3.2,3.2,3.2
		C-1045.8-578.3-1044.4-579.8-1044.4-581.6z"/>
	<path class="st2" d="M-1047.6-568.6c0,1.8,1.5,3.2,3.2,3.2c1.8,0,3.3-1.5,3.3-3.2c0-1.8-1.5-3.2-3.3-3.2
		C-1046.1-571.8-1047.6-570.4-1047.6-568.6z"/>
	<path class="st2" d="M-1011.9-640.1c-1.8,0-3.3,1.5-3.3,3.2s1.5,3.2,3.3,3.2s3.2-1.5,3.2-3.2S-1010.1-640.1-1011.9-640.1z"/>
	<path class="st2" d="M-960-566.3c-0.3-0.9-0.9-1.6-1.7-2l-3.8-1.9c2.9-7.2,5.5-15.5,5.6-24.4c0-16.4-5.3-30.9-14.5-40
		c-20.6-20.2-54.2-20.2-74.8,0c-9.3,9.1-14.6,23.7-14.6,40c0,8.9,2.7,17.2,5.6,24.4l-3.8,1.9c-0.8,0.4-1.4,1.1-1.7,2
		c-0.3,0.9-0.1,1.8,0.3,2.6l9.7,16.2c0.9,1.5,2.9,2,4.4,1.1l10.8-6.2c7.2-4.1,10.3-13.2,7-20.6c-6.2-13.9-7.2-35.3,0.8-43.2
		c10.4-10.2,27.3-10.2,37.6,0c8,7.8,7,29.2,0.8,43.2c-3.3,7.4-0.3,16.4,7,20.6l10.8,6.2c0.5,0.3,1.1,0.4,1.6,0.4
		c1.1,0,2.2-0.6,2.8-1.6l9.7-16.2C-959.9-564.5-959.7-565.4-960-566.3L-960-566.3z M-971.1-565.7l3.4,1.7l-6.3,10.5l-8.1-4.6
		c-4.3-2.5-6.2-7.9-4.2-12.3c7.3-16.2,8.1-40.4-2.2-50.4c-6.4-6.3-14.9-9.5-23.4-9.5c-8.5,0-16.9,3.2-23.4,9.5
		c-10.3,10.1-9.4,34.2-2.2,50.4c2,4.4,0.1,9.8-4.2,12.3l-8.1,4.6l-6.3-10.5l3.4-1.7c1.5-0.8,2.2-2.6,1.5-4.2
		c-3.1-7.2-6.2-15.8-6.2-24.7c0-14.6,4.6-27.5,12.6-35.4c18.1-17.8,47.6-17.8,65.7,0c8,7.9,12.6,20.8,12.6,35.4
		c0,9-3.2,17.5-6.2,24.7C-973.3-568.3-972.6-566.5-971.1-565.7L-971.1-565.7z"/>
	<path class="st2" d="M-1001.3-638.8c-1.7-0.4-3.5,0.6-4,2.3s0.6,3.5,2.3,4c4.3,1.1,8.3,3,11.9,5.6c0.6,0.4,1.2,0.6,1.9,0.6
		c1,0,2-0.5,2.6-1.4c1-1.5,0.7-3.5-0.7-4.5C-991.5-635.2-996.2-637.4-1001.3-638.8L-1001.3-638.8z"/>
	<path class="st2" d="M-1022.4-638.8c-5.1,1.3-9.8,3.5-14.1,6.6c-1.5,1-1.8,3.1-0.7,4.5c0.6,0.9,1.6,1.4,2.6,1.4
		c0.7,0,1.3-0.2,1.9-0.6c3.6-2.6,7.6-4.5,11.9-5.6c1.7-0.4,2.8-2.2,2.3-4C-1018.9-638.2-1020.7-639.2-1022.4-638.8L-1022.4-638.8z"
		/>
</g>
<g>
	<path class="st2" d="M-931.9-575.1c0,1.8,1.5,3.2,3.2,3.2s3.3-1.5,3.3-3.2s-1.5-3.2-3.3-3.2C-930.4-578.3-931.9-576.9-931.9-575.1z
		"/>
	<path class="st2" d="M-863.7-571.8c1.8,0,3.3-1.5,3.3-3.2s-1.5-3.2-3.3-3.2s-3.2,1.5-3.2,3.2S-865.5-571.8-863.7-571.8z"/>
	<path class="st2" d="M-931.9-610.8c1.8,0,3.3-1.5,3.3-3.2c0-1.8-1.5-3.2-3.3-3.2c-1.8,0-3.2,1.5-3.2,3.2
		C-935.2-612.3-933.7-610.8-931.9-610.8z"/>
	<path class="st2" d="M-928.7-623.8c1.8,0,3.3-1.5,3.3-3.2c0-1.8-1.5-3.2-3.3-3.2s-3.2,1.5-3.2,3.2
		C-931.9-625.3-930.4-623.8-928.7-623.8z"/>
	<path class="st2" d="M-863.7-614.1c0,1.8,1.5,3.2,3.3,3.2s3.2-1.5,3.2-3.2c0-1.8-1.5-3.2-3.2-3.2S-863.7-615.9-863.7-614.1z"/>
	<path class="st2" d="M-860.4-627.1c0-1.8-1.5-3.2-3.2-3.2s-3.3,1.5-3.3,3.2c0,1.8,1.5,3.2,3.3,3.2
		C-861.9-623.8-860.4-625.3-860.4-627.1z"/>
	<path class="st2" d="M-896.2-555.6c1.8,0,3.3-1.5,3.3-3.2s-1.5-3.2-3.3-3.2s-3.2,1.5-3.2,3.2S-898-555.6-896.2-555.6z"/>
	<path class="st2" d="M-948-629.4c0.3,0.9,0.9,1.6,1.7,2l3.8,1.9c-2.9,7.2-5.5,15.5-5.6,24.4c0,16.4,5.3,30.9,14.5,40
		c20.6,20.2,54.2,20.2,74.8,0c9.3-9.1,14.6-23.7,14.6-40c0-8.9-2.7-17.2-5.6-24.4l3.8-1.9c0.8-0.4,1.4-1.1,1.7-2
		c0.3-0.9,0.1-1.8-0.3-2.6l-9.7-16.2c-0.9-1.5-2.9-2-4.4-1.1l-10.8,6.2c-7.2,4.1-10.3,13.2-7,20.6c6.2,13.9,7.2,35.3-0.8,43.2
		c-10.4,10.2-27.3,10.2-37.6,0c-8-7.8-7-29.2-0.8-43.2c3.3-7.4,0.3-16.4-7-20.6l-10.8-6.2c-0.5-0.3-1.1-0.4-1.6-0.4
		c-1.1,0-2.2,0.6-2.8,1.6l-9.7,16.2C-948.2-631.2-948.3-630.3-948-629.4L-948-629.4z M-936.9-630l-3.4-1.7l6.3-10.5l8.1,4.6
		c4.3,2.5,6.2,7.9,4.2,12.3c-7.3,16.2-8.1,40.4,2.2,50.4c6.4,6.3,14.9,9.5,23.4,9.5c8.5,0,16.9-3.2,23.4-9.5
		c10.3-10.1,9.4-34.2,2.2-50.4c-2-4.4-0.1-9.8,4.2-12.3l8.1-4.6l6.3,10.5l-3.4,1.7c-1.5,0.8-2.2,2.6-1.5,4.2
		c3.1,7.2,6.2,15.8,6.2,24.7c0,14.6-4.6,27.5-12.6,35.4c-18.1,17.8-47.6,17.8-65.7,0c-8-7.9-12.6-20.8-12.6-35.4
		c0-9,3.2-17.5,6.2-24.7C-934.7-627.4-935.4-629.2-936.9-630L-936.9-630z"/>
	<path class="st2" d="M-906.7-556.9c1.7,0.4,3.5-0.6,4-2.3c0.4-1.7-0.6-3.5-2.3-4c-4.3-1.1-8.3-3-11.9-5.6c-0.6-0.4-1.2-0.6-1.9-0.6
		c-1,0-2,0.5-2.6,1.4c-1,1.5-0.7,3.5,0.7,4.5C-916.5-560.4-911.8-558.2-906.7-556.9L-906.7-556.9z"/>
	<path class="st2" d="M-885.6-556.9c5.1-1.3,9.8-3.5,14.1-6.6c1.5-1,1.8-3.1,0.7-4.5c-0.6-0.9-1.6-1.4-2.6-1.4
		c-0.7,0-1.3,0.2-1.9,0.6c-3.6,2.6-7.6,4.5-11.9,5.6c-1.7,0.4-2.8,2.2-2.3,4C-889.1-557.5-887.3-556.5-885.6-556.9L-885.6-556.9z"/>
</g>
<g>
	<path class="st2" d="M-977.4-504.9c0-1.8-1.5-3.2-3.2-3.2s-3.3,1.5-3.3,3.2c0,1.8,1.5,3.2,3.3,3.2
		C-978.9-501.6-977.4-503.1-977.4-504.9z"/>
	<path class="st2" d="M-1045.7-508.1c-1.8,0-3.3,1.5-3.3,3.2c0,1.8,1.5,3.2,3.3,3.2c1.8,0,3.2-1.5,3.2-3.2
		C-1042.4-506.7-1043.9-508.1-1045.7-508.1z"/>
	<path class="st2" d="M-977.4-469.1c-1.8,0-3.3,1.5-3.3,3.2c0,1.8,1.5,3.2,3.3,3.2c1.8,0,3.2-1.5,3.2-3.2
		C-974.2-467.7-975.6-469.1-977.4-469.1z"/>
	<path class="st2" d="M-980.7-456.1c-1.8,0-3.3,1.5-3.3,3.2c0,1.8,1.5,3.2,3.3,3.2s3.2-1.5,3.2-3.2
		C-977.4-454.7-978.9-456.1-980.7-456.1z"/>
	<path class="st2" d="M-1045.7-465.9c0-1.8-1.5-3.2-3.3-3.2c-1.8,0-3.2,1.5-3.2,3.2c0,1.8,1.5,3.2,3.2,3.2
		C-1047.1-462.6-1045.7-464.1-1045.7-465.9z"/>
	<path class="st2" d="M-1048.9-452.9c0,1.8,1.5,3.2,3.2,3.2c1.8,0,3.3-1.5,3.3-3.2c0-1.8-1.5-3.2-3.3-3.2
		C-1047.4-456.1-1048.9-454.7-1048.9-452.9z"/>
	<path class="st2" d="M-1013.2-524.4c-1.8,0-3.3,1.5-3.3,3.2s1.5,3.2,3.3,3.2c1.8,0,3.2-1.5,3.2-3.2S-1011.4-524.4-1013.2-524.4z"/>
	<path class="st2" d="M-961.3-450.6c-0.3-0.9-0.9-1.6-1.7-2l-3.8-1.9c2.9-7.2,5.5-15.5,5.6-24.4c0-16.4-5.3-30.9-14.5-40
		c-20.6-20.2-54.2-20.2-74.8,0c-9.3,9.1-14.6,23.7-14.6,40c0,8.9,2.7,17.2,5.6,24.4l-3.8,1.9c-0.8,0.4-1.4,1.1-1.7,2
		c-0.3,0.9-0.1,1.8,0.3,2.6l9.7,16.2c0.9,1.5,2.9,2,4.4,1.1l10.8-6.2c7.2-4.1,10.3-13.2,7-20.6c-6.2-13.9-7.2-35.3,0.8-43.2
		c10.4-10.2,27.3-10.2,37.6,0c8,7.8,7,29.2,0.8,43.2c-3.3,7.4-0.3,16.4,7,20.6l10.8,6.2c0.5,0.3,1.1,0.4,1.6,0.4
		c1.1,0,2.2-0.6,2.8-1.6l9.7-16.2C-961.2-448.8-961-449.7-961.3-450.6L-961.3-450.6z M-972.4-450l3.4,1.7l-6.3,10.5l-8.1-4.6
		c-4.3-2.5-6.2-7.9-4.2-12.3c7.3-16.2,8.1-40.4-2.2-50.4c-6.4-6.3-14.9-9.5-23.4-9.5c-8.5,0-16.9,3.2-23.4,9.5
		c-10.3,10.1-9.4,34.2-2.2,50.4c2,4.4,0.1,9.8-4.2,12.3l-8.1,4.6l-6.3-10.5l3.4-1.7c1.5-0.8,2.2-2.6,1.5-4.2
		c-3.1-7.2-6.2-15.8-6.2-24.7c0-14.6,4.6-27.5,12.6-35.4c18.1-17.8,47.6-17.8,65.7,0c8,7.9,12.6,20.8,12.6,35.4
		c0,9-3.2,17.5-6.2,24.7C-974.6-452.6-973.9-450.8-972.4-450L-972.4-450z"/>
	<path class="st2" d="M-1002.6-523.1c-1.7-0.4-3.5,0.6-4,2.3c-0.4,1.7,0.6,3.5,2.3,4c4.3,1.1,8.3,3,11.9,5.6
		c0.6,0.4,1.2,0.6,1.9,0.6c1,0,2-0.5,2.6-1.4c1-1.5,0.7-3.5-0.7-4.5C-992.8-519.5-997.5-521.7-1002.6-523.1L-1002.6-523.1z"/>
	<path class="st2" d="M-1023.7-523.1c-5.1,1.3-9.8,3.5-14.1,6.6c-1.5,1-1.8,3.1-0.7,4.5c0.6,0.9,1.6,1.4,2.6,1.4
		c0.7,0,1.3-0.2,1.9-0.6c3.6-2.6,7.6-4.5,11.9-5.6c1.7-0.4,2.8-2.2,2.3-4C-1020.2-522.5-1022-523.5-1023.7-523.1L-1023.7-523.1z"/>
</g>
<g>
	<path class="st2" d="M-933.2-459.4c0,1.8,1.5,3.2,3.2,3.2s3.3-1.5,3.3-3.2c0-1.8-1.5-3.2-3.3-3.2
		C-931.7-462.6-933.2-461.2-933.2-459.4z"/>
	<path class="st2" d="M-865-456.1c1.8,0,3.3-1.5,3.3-3.2c0-1.8-1.5-3.2-3.3-3.2c-1.8,0-3.2,1.5-3.2,3.2
		C-868.2-457.6-866.8-456.1-865-456.1z"/>
	<path class="st2" d="M-933.2-495.1c1.8,0,3.3-1.5,3.3-3.2c0-1.8-1.5-3.2-3.3-3.2s-3.2,1.5-3.2,3.2
		C-936.5-496.6-935-495.1-933.2-495.1z"/>
	<path class="st2" d="M-930-508.1c1.8,0,3.3-1.5,3.3-3.2s-1.5-3.2-3.3-3.2s-3.2,1.5-3.2,3.2C-933.2-509.6-931.7-508.1-930-508.1z"/>
	<path class="st2" d="M-865-498.4c0,1.8,1.5,3.2,3.3,3.2s3.2-1.5,3.2-3.2c0-1.8-1.5-3.2-3.2-3.2S-865-500.2-865-498.4z"/>
	<path class="st2" d="M-861.7-511.4c0-1.8-1.5-3.2-3.2-3.2s-3.3,1.5-3.3,3.2s1.5,3.2,3.3,3.2C-863.2-508.1-861.7-509.6-861.7-511.4z
		"/>
	<path class="st2" d="M-897.5-439.9c1.8,0,3.3-1.5,3.3-3.2c0-1.8-1.5-3.2-3.3-3.2s-3.2,1.5-3.2,3.2
		C-900.7-441.3-899.3-439.9-897.5-439.9z"/>
	<path class="st2" d="M-949.3-513.7c0.3,0.9,0.9,1.6,1.7,2l3.8,1.9c-2.9,7.2-5.5,15.5-5.6,24.4c0,16.4,5.3,30.9,14.5,40
		c20.6,20.2,54.2,20.2,74.8,0c9.3-9.1,14.6-23.7,14.6-40c0-8.9-2.7-17.2-5.6-24.4l3.8-1.9c0.8-0.4,1.4-1.1,1.7-2
		c0.3-0.9,0.1-1.8-0.3-2.6l-9.7-16.2c-0.9-1.5-2.9-2-4.4-1.1l-10.8,6.2c-7.2,4.1-10.3,13.2-7,20.6c6.2,13.9,7.2,35.3-0.8,43.2
		c-10.4,10.2-27.3,10.2-37.6,0c-8-7.8-7-29.2-0.8-43.2c3.3-7.4,0.3-16.4-7-20.6l-10.8-6.2c-0.5-0.3-1.1-0.4-1.6-0.4
		c-1.1,0-2.2,0.6-2.8,1.6l-9.7,16.2C-949.5-515.5-949.6-514.6-949.3-513.7L-949.3-513.7z M-938.2-514.3l-3.4-1.7l6.3-10.5l8.1,4.6
		c4.3,2.5,6.2,7.9,4.2,12.3c-7.3,16.2-8.1,40.4,2.2,50.4c6.4,6.3,14.9,9.5,23.4,9.5c8.5,0,16.9-3.2,23.4-9.5
		c10.3-10.1,9.4-34.2,2.2-50.4c-2-4.4-0.1-9.8,4.2-12.3l8.1-4.6l6.3,10.5l-3.4,1.7c-1.5,0.8-2.2,2.6-1.5,4.2
		c3.1,7.2,6.2,15.8,6.2,24.7c0,14.6-4.6,27.5-12.6,35.4c-18.1,17.8-47.6,17.8-65.7,0c-8-7.9-12.6-20.8-12.6-35.4
		c0-9,3.2-17.5,6.2-24.7C-936-511.7-936.7-513.5-938.2-514.3L-938.2-514.3z"/>
	<path class="st2" d="M-908-441.2c1.7,0.4,3.5-0.6,4-2.3c0.4-1.7-0.6-3.5-2.3-4c-4.3-1.1-8.3-3-11.9-5.6c-0.6-0.4-1.2-0.6-1.9-0.6
		c-1,0-2,0.5-2.6,1.4c-1,1.5-0.7,3.5,0.7,4.5C-917.8-444.7-913.1-442.5-908-441.2L-908-441.2z"/>
	<path class="st2" d="M-886.9-441.2c5.1-1.3,9.8-3.5,14.1-6.6c1.5-1,1.8-3.1,0.7-4.5c-0.6-0.9-1.6-1.4-2.6-1.4
		c-0.7,0-1.3,0.2-1.9,0.6c-3.6,2.6-7.6,4.5-11.9,5.6c-1.7,0.4-2.8,2.2-2.3,4C-890.4-441.8-888.6-440.8-886.9-441.2L-886.9-441.2z"/>
</g>
<rect class="st3" width="1242" height="2208"/>
<linearGradient id="SVGID_1_" gradientUnits="userSpaceOnUse" x1="621" y1="2208" x2="621" y2="-9.094947e-13">
	<stop  offset="0" style="stop-color:#253E93"/>
	<stop  offset="0.8652" style="stop-color:#FFFFFF;stop-opacity:0"/>
</linearGradient>
<rect x="0" class="st4" width="1242" height="2208"/>
</svg>
