<?xml version="1.0" encoding="utf-8"?>
<!-- Generator: Adobe Illustrator 22.0.1, SVG Export Plug-In . SVG Version: 6.00 Build 0)  -->
<svg version="1.1" id="Layer_1" xmlns="http://www.w3.org/2000/svg" xmlns:xlink="http://www.w3.org/1999/xlink" x="0px" y="0px"
	 viewBox="0 0 1242 2208" style="enable-background:new 0 0 1242 2208;" xml:space="preserve">
<style type="text/css">
	.st0{fill:none;}
	.st1{fill:#4D4D4D;}
	.st2{fill:#999999;}
	.st3{fill:url(#New_Pattern_Swatch_28);}
	.st4{fill:url(#SVGID_1_);}
</style>
<pattern  width="99" height="99" patternUnits="userSpaceOnUse" id="New_Pattern_Swatch_28" viewBox="0 -99 99 99" style="overflow:visible;">
	<g>
		<rect y="-99" class="st0" width="99" height="99"/>
		<rect y="-99" class="st1" width="99" height="99"/>
		<g>
			<path class="st2" d="M38.8-82.2c-0.8,0-1.4-0.6-1.4-1.4c0-0.8,0.6-1.4,1.4-1.4s1.4,0.6,1.4,1.4C40.1-82.8,39.5-82.2,38.8-82.2z"
				/>
			<path class="st2" d="M12.6-83.6c0,0.8-0.6,1.4-1.4,1.4c-0.8,0-1.4-0.6-1.4-1.4c0-0.8,0.6-1.4,1.4-1.4C12-85,12.6-84.4,12.6-83.6z
				"/>
			<path class="st2" d="M41.5-67.1c0,0.8-0.6,1.4-1.4,1.4c-0.8,0-1.4-0.6-1.4-1.4c0-0.8,0.6-1.4,1.4-1.4
				C40.9-68.5,41.5-67.9,41.5-67.1z"/>
			<path class="st2" d="M40.1-61.6c0,0.8-0.6,1.4-1.4,1.4s-1.4-0.6-1.4-1.4c0-0.8,0.6-1.4,1.4-1.4C39.5-63,40.1-62.4,40.1-61.6z"/>
			<path class="st2" d="M9.9-65.7c-0.8,0-1.4-0.6-1.4-1.4c0-0.8,0.6-1.4,1.4-1.4s1.4,0.6,1.4,1.4C11.3-66.3,10.7-65.7,9.9-65.7z"/>
			<path class="st2" d="M11.3-63c0.8,0,1.4,0.6,1.4,1.4c0,0.8-0.6,1.4-1.4,1.4c-0.8,0-1.4-0.6-1.4-1.4C9.9-62.4,10.5-63,11.3-63z"/>
			<path class="st2" d="M26.4-90.5c0,0.8-0.6,1.4-1.4,1.4c-0.8,0-1.4-0.6-1.4-1.4c0-0.8,0.6-1.4,1.4-1.4
				C25.8-91.8,26.4-91.2,26.4-90.5z"/>
			<path class="st2" d="M47-60.6c0.1,0.4,0.1,0.8-0.1,1.1l-4.1,6.9C42.4-52.2,42-52,41.5-52c-0.2,0-0.5-0.1-0.7-0.2l-4.6-2.6
				c-3.1-1.7-4.3-5.6-2.9-8.7c2.6-5.9,3.1-14.9-0.3-18.3c-4.4-4.3-11.5-4.3-15.9,0c-3.4,3.3-3,12.4-0.3,18.3c1.4,3.1,0.1,7-2.9,8.7
				l-4.6,2.6c-0.7,0.4-1.5,0.2-1.9-0.5l-4.1-6.9C3-59.8,3-60.2,3.1-60.6c0.1-0.4,0.4-0.7,0.7-0.8l1.6-0.8C4.2-65.3,3-68.8,3-72.6
				c0-6.9,2.2-13.1,6.2-16.9c8.7-8.6,22.9-8.6,31.7,0c3.9,3.8,6.2,10,6.1,16.9c0,3.8-1.1,7.3-2.3,10.3l1.6,0.8
				C46.6-61.3,46.9-61,47-60.6L47-60.6z M42.3-60.4c-0.6-0.3-0.9-1.1-0.7-1.8c1.3-3,2.6-6.7,2.6-10.5c0-6.2-1.9-11.6-5.3-15
				c-7.7-7.5-20.1-7.5-27.8,0c-3.4,3.3-5.3,8.8-5.3,15c0,3.8,1.3,7.4,2.6,10.5c0.3,0.7,0,1.4-0.7,1.8l-1.4,0.7L9-55.2l3.4-2
				c1.8-1.1,2.6-3.3,1.8-5.2c-3.1-6.9-3.4-17.1,0.9-21.3c2.7-2.7,6.3-4,9.9-4c3.6,0,7.2,1.3,9.9,4c4.4,4.3,4,14.5,0.9,21.3
				c-0.8,1.9,0,4.1,1.8,5.2l3.4,2l2.7-4.4L42.3-60.4L42.3-60.4z"/>
			<path class="st2" d="M29.5-91.3c2.1,0.6,4.1,1.5,6,2.8c0.6,0.4,0.8,1.3,0.3,1.9c-0.3,0.4-0.7,0.6-1.1,0.6c-0.3,0-0.6-0.1-0.8-0.3
				c-1.5-1.1-3.2-1.9-5-2.4c-0.7-0.2-1.2-0.9-1-1.7C28-91,28.8-91.5,29.5-91.3L29.5-91.3z"/>
			<path class="st2" d="M20.6-91.3c0.7-0.2,1.5,0.3,1.7,1c0.2,0.7-0.3,1.5-1,1.7c-1.8,0.5-3.5,1.3-5,2.4C16-86.1,15.7-86,15.4-86
				c-0.4,0-0.8-0.2-1.1-0.6c-0.4-0.6-0.3-1.5,0.3-1.9C16.4-89.8,18.4-90.7,20.6-91.3L20.6-91.3z"/>
		</g>
		<g>
			<path class="st2" d="M60.2-65.7c0.8,0,1.4,0.6,1.4,1.4c0,0.8-0.6,1.4-1.4,1.4s-1.4-0.6-1.4-1.4C58.8-65.1,59.5-65.7,60.2-65.7z"
				/>
			<path class="st2" d="M86.3-64.3c0-0.8,0.6-1.4,1.4-1.4c0.8,0,1.4,0.6,1.4,1.4c0,0.8-0.6,1.4-1.4,1.4C87-63,86.3-63.6,86.3-64.3z"
				/>
			<path class="st2" d="M57.5-80.8c0-0.8,0.6-1.4,1.4-1.4s1.4,0.6,1.4,1.4s-0.6,1.4-1.4,1.4S57.5-80.1,57.5-80.8z"/>
			<path class="st2" d="M58.8-86.3c0-0.8,0.6-1.4,1.4-1.4s1.4,0.6,1.4,1.4c0,0.8-0.6,1.4-1.4,1.4C59.5-85,58.8-85.6,58.8-86.3z"/>
			<path class="st2" d="M89.1-82.2c0.8,0,1.4,0.6,1.4,1.4s-0.6,1.4-1.4,1.4c-0.8,0-1.4-0.6-1.4-1.4C87.7-81.6,88.3-82.2,89.1-82.2z"
				/>
			<path class="st2" d="M87.7-85c-0.8,0-1.4-0.6-1.4-1.4c0-0.8,0.6-1.4,1.4-1.4c0.8,0,1.4,0.6,1.4,1.4C89.1-85.6,88.5-85,87.7-85z"
				/>
			<path class="st2" d="M72.6-57.5c0-0.8,0.6-1.4,1.4-1.4c0.8,0,1.4,0.6,1.4,1.4c0,0.8-0.6,1.4-1.4,1.4
				C73.2-56.1,72.6-56.7,72.6-57.5z"/>
			<path class="st2" d="M52-87.3c-0.1-0.4-0.1-0.8,0.1-1.1l4.1-6.9c0.3-0.4,0.7-0.7,1.2-0.7c0.2,0,0.5,0.1,0.7,0.2l4.6,2.6
				c3.1,1.7,4.3,5.6,2.9,8.7C63-78.6,62.6-69.5,66-66.2c4.4,4.3,11.5,4.3,15.9,0c3.4-3.3,3-12.4,0.3-18.3c-1.4-3.1-0.1-7,2.9-8.7
				l4.6-2.6c0.7-0.4,1.5-0.2,1.9,0.5l4.1,6.9c0.2,0.3,0.2,0.7,0.1,1.1c-0.1,0.4-0.4,0.7-0.7,0.8l-1.6,0.8c1.2,3.1,2.4,6.6,2.4,10.3
				c0,6.9-2.2,13.1-6.2,16.9c-8.7,8.6-22.9,8.6-31.7,0c-3.9-3.8-6.2-10-6.1-16.9c0-3.8,1.1-7.3,2.3-10.3l-1.6-0.8
				C52.4-86.6,52.1-87,52-87.3L52-87.3z M56.7-87.6c0.6,0.3,0.9,1.1,0.7,1.8c-1.3,3-2.6,6.7-2.6,10.5c0,6.2,1.9,11.6,5.3,15
				c7.7,7.5,20.1,7.5,27.8,0c3.4-3.3,5.3-8.8,5.3-15c0-3.8-1.3-7.4-2.6-10.5c-0.3-0.7,0-1.4,0.7-1.8l1.4-0.7L90-92.7l-3.4,2
				c-1.8,1.1-2.6,3.3-1.8,5.2c3.1,6.9,3.4,17.1-0.9,21.3c-2.7,2.7-6.3,4-9.9,4c-3.6,0-7.2-1.3-9.9-4c-4.4-4.3-4-14.5-0.9-21.3
				c0.8-1.9,0-4.1-1.8-5.2l-3.4-2l-2.7,4.4L56.7-87.6L56.7-87.6z"/>
			<path class="st2" d="M69.5-56.6c-2.1-0.6-4.1-1.5-6-2.8c-0.6-0.4-0.8-1.3-0.3-1.9c0.3-0.4,0.7-0.6,1.1-0.6c0.3,0,0.6,0.1,0.8,0.3
				c1.5,1.1,3.2,1.9,5,2.4c0.7,0.2,1.2,0.9,1,1.7C71-56.9,70.2-56.5,69.5-56.6L69.5-56.6z"/>
			<path class="st2" d="M78.4-56.6c-0.7,0.2-1.5-0.3-1.7-1c-0.2-0.7,0.3-1.5,1-1.7c1.8-0.5,3.5-1.3,5-2.4c0.2-0.2,0.5-0.3,0.8-0.3
				c0.4,0,0.8,0.2,1.1,0.6c0.4,0.6,0.3,1.5-0.3,1.9C82.6-58.1,80.6-57.2,78.4-56.6L78.4-56.6z"/>
		</g>
		<g>
			<path class="st2" d="M38.2-33.3c-0.8,0-1.4-0.6-1.4-1.4c0-0.8,0.6-1.4,1.4-1.4s1.4,0.6,1.4,1.4C39.6-33.9,39-33.3,38.2-33.3z"/>
			<path class="st2" d="M12.1-34.6c0,0.8-0.6,1.4-1.4,1.4s-1.4-0.6-1.4-1.4c0-0.8,0.6-1.4,1.4-1.4C11.5-36,12.1-35.4,12.1-34.6z"/>
			<path class="st2" d="M41-18.1c0,0.8-0.6,1.4-1.4,1.4c-0.8,0-1.4-0.6-1.4-1.4c0-0.8,0.6-1.4,1.4-1.4C40.4-19.5,41-18.9,41-18.1z"
				/>
			<path class="st2" d="M39.6-12.6c0,0.8-0.6,1.4-1.4,1.4s-1.4-0.6-1.4-1.4s0.6-1.4,1.4-1.4C39-14,39.6-13.4,39.6-12.6z"/>
			<path class="st2" d="M9.3-16.8c-0.8,0-1.4-0.6-1.4-1.4c0-0.8,0.6-1.4,1.4-1.4s1.4,0.6,1.4,1.4C10.7-17.4,10.1-16.8,9.3-16.8z"/>
			<path class="st2" d="M10.7-14c0.8,0,1.4,0.6,1.4,1.4s-0.6,1.4-1.4,1.4c-0.8,0-1.4-0.6-1.4-1.4C9.3-13.4,10-14,10.7-14z"/>
			<path class="st2" d="M25.8-41.5c0,0.8-0.6,1.4-1.4,1.4c-0.8,0-1.4-0.6-1.4-1.4c0-0.8,0.6-1.4,1.4-1.4
				C25.2-42.9,25.8-42.3,25.8-41.5z"/>
			<path class="st2" d="M46.4-11.7c0.1,0.4,0.1,0.8-0.1,1.1l-4.1,6.9C41.9-3.3,41.4-3,41-3c-0.2,0-0.5-0.1-0.7-0.2l-4.6-2.6
				c-3.1-1.7-4.3-5.6-2.9-8.7c2.6-5.9,3.1-14.9-0.3-18.3c-4.4-4.3-11.5-4.3-15.9,0c-3.4,3.3-3,12.4-0.3,18.3c1.4,3.1,0.1,7-2.9,8.7
				L8.7-3.2C8-2.8,7.2-3.1,6.8-3.7l-4.1-6.9c-0.2-0.3-0.2-0.7-0.1-1.1c0.1-0.4,0.4-0.7,0.7-0.8l1.6-0.8c-1.2-3.1-2.4-6.6-2.4-10.3
				c0-6.9,2.2-13.1,6.2-16.9c8.7-8.6,22.9-8.6,31.7,0c3.9,3.8,6.2,10,6.1,16.9c0,3.8-1.1,7.3-2.3,10.3l1.6,0.8
				C46-12.3,46.3-12,46.4-11.7L46.4-11.7z M41.7-11.4c-0.6-0.3-0.9-1.1-0.7-1.8c1.3-3,2.6-6.7,2.6-10.5c0-6.2-1.9-11.6-5.3-15
				c-7.7-7.5-20.1-7.5-27.8,0c-3.4,3.3-5.3,8.8-5.3,15c0,3.8,1.3,7.4,2.6,10.5c0.3,0.7,0,1.4-0.7,1.8l-1.4,0.7l2.7,4.4l3.4-2
				c1.8-1.1,2.6-3.3,1.8-5.2c-3.1-6.9-3.4-17.1,0.9-21.3c2.7-2.7,6.3-4,9.9-4c3.6,0,7.2,1.3,9.9,4c4.4,4.3,4,14.5,0.9,21.3
				c-0.8,1.9,0,4.1,1.8,5.2l3.4,2l2.7-4.4L41.7-11.4L41.7-11.4z"/>
			<path class="st2" d="M28.9-42.3c2.1,0.6,4.1,1.5,6,2.8c0.6,0.4,0.8,1.3,0.3,1.9c-0.3,0.4-0.7,0.6-1.1,0.6c-0.3,0-0.6-0.1-0.8-0.3
				c-1.5-1.1-3.2-1.9-5-2.4c-0.7-0.2-1.2-0.9-1-1.7C27.5-42.1,28.2-42.5,28.9-42.3L28.9-42.3z"/>
			<path class="st2" d="M20-42.3c0.7-0.2,1.5,0.3,1.7,1c0.2,0.7-0.3,1.5-1,1.7c-1.8,0.5-3.5,1.3-5,2.4c-0.2,0.2-0.5,0.3-0.8,0.3
				c-0.4,0-0.8-0.2-1.1-0.6c-0.4-0.6-0.3-1.5,0.3-1.9C15.9-40.8,17.9-41.8,20-42.3L20-42.3z"/>
		</g>
		<g>
			<path class="st2" d="M59.7-16.8c0.8,0,1.4,0.6,1.4,1.4c0,0.8-0.6,1.4-1.4,1.4c-0.8,0-1.4-0.6-1.4-1.4
				C58.3-16.1,58.9-16.8,59.7-16.8z"/>
			<path class="st2" d="M85.8-15.4c0-0.8,0.6-1.4,1.4-1.4c0.8,0,1.4,0.6,1.4,1.4c0,0.8-0.6,1.4-1.4,1.4C86.4-14,85.8-14.6,85.8-15.4
				z"/>
			<path class="st2" d="M56.9-31.9c0-0.8,0.6-1.4,1.4-1.4s1.4,0.6,1.4,1.4s-0.6,1.4-1.4,1.4S56.9-31.1,56.9-31.9z"/>
			<path class="st2" d="M58.3-37.4c0-0.8,0.6-1.4,1.4-1.4c0.8,0,1.4,0.6,1.4,1.4S60.4-36,59.7-36C58.9-36,58.3-36.6,58.3-37.4z"/>
			<path class="st2" d="M88.5-33.3c0.8,0,1.4,0.6,1.4,1.4s-0.6,1.4-1.4,1.4c-0.8,0-1.4-0.6-1.4-1.4C87.2-32.6,87.8-33.3,88.5-33.3z"
				/>
			<path class="st2" d="M87.2-36c-0.8,0-1.4-0.6-1.4-1.4s0.6-1.4,1.4-1.4c0.8,0,1.4,0.6,1.4,1.4C88.5-36.6,87.9-36,87.2-36z"/>
			<path class="st2" d="M72-8.5c0-0.8,0.6-1.4,1.4-1.4s1.4,0.6,1.4,1.4c0,0.8-0.6,1.4-1.4,1.4C72.7-7.1,72-7.8,72-8.5z"/>
			<path class="st2" d="M51.5-38.4c-0.1-0.4-0.1-0.8,0.1-1.1l4.1-6.9c0.3-0.4,0.7-0.7,1.2-0.7c0.2,0,0.5,0.1,0.7,0.2l4.6,2.6
				c3.1,1.7,4.3,5.6,2.9,8.7c-2.6,5.9-3.1,14.9,0.3,18.3c4.4,4.3,11.5,4.3,15.9,0c3.4-3.3,3-12.4,0.3-18.3c-1.4-3.1-0.1-7,2.9-8.7
				l4.6-2.6c0.7-0.4,1.5-0.2,1.9,0.5l4.1,6.9c0.2,0.3,0.2,0.7,0.1,1.1c-0.1,0.4-0.4,0.7-0.7,0.8l-1.6,0.8c1.2,3.1,2.4,6.6,2.4,10.3
				c0,6.9-2.2,13.1-6.2,16.9c-8.7,8.6-22.9,8.6-31.7,0c-3.9-3.8-6.2-10-6.1-16.9c0-3.8,1.1-7.3,2.3-10.3l-1.6-0.8
				C51.8-37.7,51.6-38,51.5-38.4L51.5-38.4z M56.2-38.6c0.6,0.3,0.9,1.1,0.7,1.8c-1.3,3-2.6,6.7-2.6,10.5c0,6.2,1.9,11.6,5.3,15
				c7.7,7.5,20.1,7.5,27.8,0c3.4-3.3,5.3-8.8,5.3-15c0-3.8-1.3-7.4-2.6-10.5c-0.3-0.7,0-1.4,0.7-1.8l1.4-0.7l-2.7-4.4l-3.4,2
				c-1.8,1.1-2.6,3.3-1.8,5.2c3.1,6.9,3.4,17.1-0.9,21.3c-2.7,2.7-6.3,4-9.9,4c-3.6,0-7.2-1.3-9.9-4c-4.4-4.3-4-14.5-0.9-21.3
				c0.8-1.9,0-4.1-1.8-5.2l-3.4-2l-2.7,4.4L56.2-38.6L56.2-38.6z"/>
			<path class="st2" d="M69-7.7c-2.1-0.6-4.1-1.5-6-2.8c-0.6-0.4-0.8-1.3-0.3-1.9c0.3-0.4,0.7-0.6,1.1-0.6c0.3,0,0.6,0.1,0.8,0.3
				c1.5,1.1,3.2,1.9,5,2.4c0.7,0.2,1.2,0.9,1,1.7C70.4-8,69.7-7.5,69-7.7L69-7.7z"/>
			<path class="st2" d="M77.9-7.7c-0.7,0.2-1.5-0.3-1.7-1c-0.2-0.7,0.3-1.5,1-1.7c1.8-0.5,3.5-1.3,5-2.4c0.2-0.2,0.5-0.3,0.8-0.3
				c0.4,0,0.8,0.2,1.1,0.6c0.4,0.6,0.3,1.5-0.3,1.9C82-9.2,80-8.3,77.9-7.7L77.9-7.7z"/>
		</g>
	</g>
</pattern>
<rect x="-1071" y="-657" class="st1" width="171" height="171"/>
<g>
	<path class="st2" d="M-1001.7-630.4c0-1.3-1.1-2.4-2.4-2.4c-1.3,0-2.4,1.1-2.4,2.4c0,1.3,1.1,2.4,2.4,2.4
		C-1002.7-628-1001.7-629.1-1001.7-630.4z"/>
	<path class="st2" d="M-1051.5-632.8c-1.3,0-2.4,1.1-2.4,2.4c0,1.3,1.1,2.4,2.4,2.4c1.3,0,2.4-1.1,2.4-2.4
		C-1049.2-631.7-1050.2-632.8-1051.5-632.8z"/>
	<path class="st2" d="M-1001.7-604.3c-1.3,0-2.4,1.1-2.4,2.4s1.1,2.4,2.4,2.4c1.3,0,2.4-1.1,2.4-2.4
		C-999.3-603.2-1000.3-604.3-1001.7-604.3z"/>
	<path class="st2" d="M-1004-594.8c-1.3,0-2.4,1.1-2.4,2.4s1.1,2.4,2.4,2.4c1.3,0,2.4-1.1,2.4-2.4
		C-1001.7-593.7-1002.7-594.8-1004-594.8z"/>
	<path class="st2" d="M-1051.5-601.9c0-1.3-1.1-2.4-2.4-2.4c-1.3,0-2.4,1.1-2.4,2.4s1.1,2.4,2.4,2.4
		C-1052.6-599.5-1051.5-600.6-1051.5-601.9z"/>
	<path class="st2" d="M-1053.9-592.4c0,1.3,1.1,2.4,2.4,2.4s2.4-1.1,2.4-2.4s-1.1-2.4-2.4-2.4
		C-1052.8-594.8-1053.9-593.7-1053.9-592.4z"/>
	<path class="st2" d="M-1027.8-644.6c-1.3,0-2.4,1.1-2.4,2.4s1.1,2.4,2.4,2.4s2.4-1.1,2.4-2.4S-1026.5-644.6-1027.8-644.6z"/>
	<path class="st2" d="M-989.9-590.7c-0.2-0.6-0.6-1.2-1.2-1.5l-2.8-1.4c2.1-5.2,4-11.3,4.1-17.9c0-11.9-3.8-22.6-10.6-29.3
		c-15.1-14.8-39.6-14.8-54.7,0c-6.8,6.6-10.7,17.3-10.6,29.3c0,6.5,2,12.6,4.1,17.9l-2.8,1.4c-0.6,0.3-1,0.8-1.2,1.5
		c-0.2,0.6-0.1,1.3,0.2,1.9l7.1,11.9c0.7,1.1,2.1,1.5,3.2,0.8l7.9-4.5c5.3-3,7.5-9.6,5.1-15c-4.6-10.2-5.3-25.8,0.6-31.5
		c7.6-7.4,19.9-7.4,27.5,0c5.8,5.7,5.1,21.4,0.6,31.5c-2.4,5.4-0.2,12,5.1,15l7.9,4.5c0.4,0.2,0.8,0.3,1.2,0.3c0.8,0,1.6-0.4,2-1.2
		l7.1-11.9C-989.8-589.4-989.7-590.1-989.9-590.7L-989.9-590.7z M-998-590.3l2.5,1.2l-4.6,7.7l-5.9-3.4c-3.2-1.8-4.5-5.8-3.1-9
		c5.3-11.9,5.9-29.5-1.6-36.9c-4.7-4.6-10.9-6.9-17.1-6.9c-6.2,0-12.4,2.3-17.1,6.9c-7.5,7.4-6.9,25-1.6,36.9c1.4,3.2,0.1,7.2-3.1,9
		l-5.9,3.4l-4.6-7.7l2.5-1.2c1.1-0.6,1.6-1.9,1.1-3.1c-2.3-5.3-4.6-11.6-4.6-18.1c0-10.7,3.3-20.1,9.2-25.9c13.2-13,34.8-13,48,0
		c5.9,5.8,9.2,15.2,9.2,25.9c0,6.6-2.3,12.8-4.5,18.1C-999.6-592.2-999.1-590.8-998-590.3L-998-590.3z"/>
	<path class="st2" d="M-1020.1-643.7c-1.3-0.3-2.6,0.4-2.9,1.7s0.4,2.6,1.7,2.9c3.1,0.8,6.1,2.2,8.7,4.1c0.4,0.3,0.9,0.4,1.4,0.4
		c0.7,0,1.5-0.3,1.9-1c0.8-1.1,0.5-2.5-0.5-3.3C-1012.9-641.1-1016.4-642.7-1020.1-643.7L-1020.1-643.7z"/>
	<path class="st2" d="M-1035.5-643.7c-3.7,1-7.2,2.6-10.3,4.8c-1.1,0.8-1.3,2.2-0.5,3.3c0.5,0.6,1.2,1,1.9,1c0.5,0,1-0.1,1.4-0.4
		c2.6-1.9,5.6-3.3,8.7-4.1c1.3-0.3,2-1.6,1.7-2.9C-1032.9-643.2-1034.2-644-1035.5-643.7L-1035.5-643.7z"/>
</g>
<g>
	<path class="st2" d="M-969.4-597.1c0,1.3,1.1,2.4,2.4,2.4c1.3,0,2.4-1.1,2.4-2.4s-1.1-2.4-2.4-2.4
		C-968.3-599.5-969.4-598.4-969.4-597.1z"/>
	<path class="st2" d="M-919.5-594.8c1.3,0,2.4-1.1,2.4-2.4s-1.1-2.4-2.4-2.4c-1.3,0-2.4,1.1-2.4,2.4S-920.8-594.8-919.5-594.8z"/>
	<path class="st2" d="M-969.4-623.2c1.3,0,2.4-1.1,2.4-2.4s-1.1-2.4-2.4-2.4s-2.4,1.1-2.4,2.4C-971.7-624.3-970.7-623.2-969.4-623.2
		z"/>
	<path class="st2" d="M-967-632.7c1.3,0,2.4-1.1,2.4-2.4s-1.1-2.4-2.4-2.4c-1.3,0-2.4,1.1-2.4,2.4
		C-969.4-633.8-968.3-632.7-967-632.7z"/>
	<path class="st2" d="M-919.5-625.6c0,1.3,1.1,2.4,2.4,2.4c1.3,0,2.4-1.1,2.4-2.4s-1.1-2.4-2.4-2.4
		C-918.4-628-919.5-626.9-919.5-625.6z"/>
	<path class="st2" d="M-917.1-635.1c0-1.3-1.1-2.4-2.4-2.4s-2.4,1.1-2.4,2.4s1.1,2.4,2.4,2.4C-918.2-632.7-917.1-633.8-917.1-635.1z
		"/>
	<path class="st2" d="M-943.2-582.9c1.3,0,2.4-1.1,2.4-2.4s-1.1-2.4-2.4-2.4s-2.4,1.1-2.4,2.4S-944.5-582.9-943.2-582.9z"/>
	<path class="st2" d="M-981.1-636.8c0.2,0.6,0.6,1.2,1.2,1.5l2.8,1.4c-2.1,5.2-4,11.3-4.1,17.9c0,11.9,3.8,22.6,10.6,29.3
		c15.1,14.8,39.6,14.8,54.7,0c6.8-6.6,10.7-17.3,10.6-29.3c0-6.5-2-12.6-4.1-17.9l2.8-1.4c0.6-0.3,1-0.8,1.2-1.5
		c0.2-0.6,0.1-1.3-0.2-1.9l-7.1-11.9c-0.7-1.1-2.1-1.5-3.2-0.8l-7.9,4.5c-5.3,3-7.5,9.6-5.1,15c4.6,10.2,5.3,25.8-0.6,31.5
		c-7.6,7.4-19.9,7.4-27.5,0c-5.8-5.7-5.1-21.4-0.6-31.5c2.4-5.4,0.2-12-5.1-15l-7.9-4.5c-0.4-0.2-0.8-0.3-1.2-0.3
		c-0.8,0-1.6,0.4-2,1.2l-7.1,11.9C-981.2-638.1-981.3-637.5-981.1-636.8L-981.1-636.8z M-973-637.2l-2.5-1.2l4.6-7.7l5.9,3.4
		c3.2,1.8,4.5,5.8,3.1,9c-5.3,11.9-5.9,29.5,1.6,36.9c4.7,4.6,10.9,6.9,17.1,6.9c6.2,0,12.4-2.3,17.1-6.9c7.5-7.4,6.9-25,1.6-36.9
		c-1.4-3.2-0.1-7.2,3.1-9l5.9-3.4l4.6,7.7l-2.5,1.2c-1.1,0.6-1.6,1.9-1.1,3.1c2.3,5.3,4.6,11.6,4.6,18.1c0,10.7-3.3,20.1-9.2,25.9
		c-13.2,13-34.8,13-48,0c-5.9-5.8-9.2-15.2-9.2-25.9c0-6.6,2.3-12.8,4.5-18.1C-971.4-635.3-971.9-636.7-973-637.2L-973-637.2z"/>
	<path class="st2" d="M-950.9-583.8c1.3,0.3,2.6-0.4,2.9-1.7c0.3-1.3-0.4-2.6-1.7-2.9c-3.1-0.8-6.1-2.2-8.7-4.1
		c-0.4-0.3-0.9-0.4-1.4-0.4c-0.7,0-1.5,0.3-1.9,1c-0.8,1.1-0.5,2.5,0.5,3.3C-958.1-586.4-954.7-584.8-950.9-583.8L-950.9-583.8z"/>
	<path class="st2" d="M-935.5-583.8c3.7-1,7.2-2.6,10.3-4.8c1.1-0.8,1.3-2.2,0.5-3.3c-0.5-0.6-1.2-1-1.9-1c-0.5,0-1,0.1-1.4,0.4
		c-2.6,1.9-5.6,3.3-8.7,4.1c-1.3,0.3-2,1.6-1.7,2.9C-938.1-584.3-936.8-583.5-935.5-583.8L-935.5-583.8z"/>
</g>
<g>
	<path class="st2" d="M-1002.6-545.8c0-1.3-1.1-2.4-2.4-2.4c-1.3,0-2.4,1.1-2.4,2.4s1.1,2.4,2.4,2.4
		C-1003.7-543.5-1002.6-544.5-1002.6-545.8z"/>
	<path class="st2" d="M-1052.5-548.2c-1.3,0-2.4,1.1-2.4,2.4s1.1,2.4,2.4,2.4c1.3,0,2.4-1.1,2.4-2.4S-1051.2-548.2-1052.5-548.2z"/>
	<path class="st2" d="M-1002.6-519.7c-1.3,0-2.4,1.1-2.4,2.4c0,1.3,1.1,2.4,2.4,2.4c1.3,0,2.4-1.1,2.4-2.4
		C-1000.2-518.7-1001.3-519.7-1002.6-519.7z"/>
	<path class="st2" d="M-1005-510.2c-1.3,0-2.4,1.1-2.4,2.4c0,1.3,1.1,2.4,2.4,2.4c1.3,0,2.4-1.1,2.4-2.4
		C-1002.6-509.2-1003.7-510.2-1005-510.2z"/>
	<path class="st2" d="M-1052.5-517.3c0-1.3-1.1-2.4-2.4-2.4s-2.4,1.1-2.4,2.4c0,1.3,1.1,2.4,2.4,2.4S-1052.5-516-1052.5-517.3z"/>
	<path class="st2" d="M-1054.9-507.8c0,1.3,1.1,2.4,2.4,2.4s2.4-1.1,2.4-2.4c0-1.3-1.1-2.4-2.4-2.4
		C-1053.8-510.2-1054.9-509.2-1054.9-507.8z"/>
	<path class="st2" d="M-1028.7-560.1c-1.3,0-2.4,1.1-2.4,2.4s1.1,2.4,2.4,2.4s2.4-1.1,2.4-2.4S-1027.4-560.1-1028.7-560.1z"/>
	<path class="st2" d="M-990.8-506.1c-0.2-0.6-0.6-1.2-1.2-1.5l-2.8-1.4c2.1-5.2,4-11.3,4.1-17.9c0-11.9-3.8-22.6-10.6-29.3
		c-15.1-14.8-39.6-14.8-54.7,0c-6.8,6.6-10.7,17.3-10.6,29.3c0,6.5,2,12.6,4.1,17.9l-2.8,1.4c-0.6,0.3-1,0.8-1.2,1.5
		c-0.2,0.6-0.1,1.3,0.2,1.9l7.1,11.9c0.7,1.1,2.1,1.5,3.2,0.8l7.9-4.5c5.3-3,7.5-9.6,5.1-15c-4.6-10.2-5.3-25.8,0.6-31.5
		c7.6-7.4,19.9-7.4,27.5,0c5.8,5.7,5.1,21.4,0.6,31.5c-2.4,5.4-0.2,12,5.1,15l7.9,4.5c0.4,0.2,0.8,0.3,1.2,0.3c0.8,0,1.6-0.4,2-1.2
		l7.1-11.9C-990.7-504.8-990.6-505.5-990.8-506.1L-990.8-506.1z M-998.9-505.7l2.5,1.2l-4.6,7.7l-5.9-3.4c-3.2-1.8-4.5-5.8-3.1-9
		c5.3-11.9,5.9-29.5-1.6-36.9c-4.7-4.6-10.9-6.9-17.1-6.9c-6.2,0-12.4,2.3-17.1,6.9c-7.5,7.4-6.9,25-1.6,36.9c1.4,3.2,0.1,7.2-3.1,9
		l-5.9,3.4l-4.6-7.7l2.5-1.2c1.1-0.6,1.6-1.9,1.1-3.1c-2.3-5.3-4.6-11.6-4.6-18.1c0-10.7,3.3-20.1,9.2-25.9c13.2-13,34.8-13,48,0
		c5.9,5.8,9.2,15.2,9.2,25.9c0,6.6-2.3,12.8-4.5,18.1C-1000.5-507.6-1000-506.3-998.9-505.7L-998.9-505.7z"/>
	<path class="st2" d="M-1021-559.1c-1.3-0.3-2.6,0.4-2.9,1.7c-0.3,1.3,0.4,2.6,1.7,2.9c3.1,0.8,6.1,2.2,8.7,4.1
		c0.4,0.3,0.9,0.4,1.4,0.4c0.7,0,1.5-0.3,1.9-1c0.8-1.1,0.5-2.5-0.5-3.3C-1013.8-556.5-1017.3-558.2-1021-559.1L-1021-559.1z"/>
	<path class="st2" d="M-1036.4-559.1c-3.7,1-7.2,2.6-10.3,4.8c-1.1,0.8-1.3,2.2-0.5,3.3c0.5,0.6,1.2,1,1.9,1c0.5,0,1-0.1,1.4-0.4
		c2.6-1.9,5.6-3.3,8.7-4.1c1.3-0.3,2-1.6,1.7-2.9C-1033.9-558.7-1035.2-559.4-1036.4-559.1L-1036.4-559.1z"/>
</g>
<g>
	<path class="st2" d="M-970.3-512.6c0,1.3,1.1,2.4,2.4,2.4c1.3,0,2.4-1.1,2.4-2.4s-1.1-2.4-2.4-2.4
		C-969.2-514.9-970.3-513.9-970.3-512.6z"/>
	<path class="st2" d="M-920.4-510.2c1.3,0,2.4-1.1,2.4-2.4s-1.1-2.4-2.4-2.4c-1.3,0-2.4,1.1-2.4,2.4S-921.7-510.2-920.4-510.2z"/>
	<path class="st2" d="M-970.3-538.7c1.3,0,2.4-1.1,2.4-2.4s-1.1-2.4-2.4-2.4c-1.3,0-2.4,1.1-2.4,2.4
		C-972.7-539.8-971.6-538.7-970.3-538.7z"/>
	<path class="st2" d="M-967.9-548.2c1.3,0,2.4-1.1,2.4-2.4s-1.1-2.4-2.4-2.4c-1.3,0-2.4,1.1-2.4,2.4
		C-970.3-549.3-969.2-548.2-967.9-548.2z"/>
	<path class="st2" d="M-920.4-541.1c0,1.3,1.1,2.4,2.4,2.4c1.3,0,2.4-1.1,2.4-2.4s-1.1-2.4-2.4-2.4
		C-919.4-543.4-920.4-542.4-920.4-541.1z"/>
	<path class="st2" d="M-918.1-550.6c0-1.3-1.1-2.4-2.4-2.4c-1.3,0-2.4,1.1-2.4,2.4s1.1,2.4,2.4,2.4
		C-919.1-548.2-918.1-549.3-918.1-550.6z"/>
	<path class="st2" d="M-944.2-498.3c1.3,0,2.4-1.1,2.4-2.4s-1.1-2.4-2.4-2.4c-1.3,0-2.4,1.1-2.4,2.4S-945.5-498.3-944.2-498.3z"/>
	<path class="st2" d="M-982.1-552.3c0.2,0.6,0.6,1.2,1.2,1.5l2.8,1.4c-2.1,5.2-4,11.3-4.1,17.9c0,11.9,3.8,22.6,10.6,29.3
		c15.1,14.8,39.6,14.8,54.7,0c6.8-6.6,10.7-17.3,10.6-29.3c0-6.5-2-12.6-4.1-17.9l2.8-1.4c0.6-0.3,1-0.8,1.2-1.5
		c0.2-0.6,0.1-1.3-0.2-1.9l-7.1-11.9c-0.7-1.1-2.1-1.5-3.2-0.8l-7.9,4.5c-5.3,3-7.5,9.6-5.1,15c4.6,10.2,5.3,25.8-0.6,31.5
		c-7.6,7.4-19.9,7.4-27.5,0c-5.8-5.7-5.1-21.4-0.6-31.5c2.4-5.4,0.2-12-5.1-15l-7.9-4.5c-0.4-0.2-0.8-0.3-1.2-0.3
		c-0.8,0-1.6,0.4-2,1.2l-7.1,11.9C-982.2-553.6-982.3-552.9-982.1-552.3L-982.1-552.3z M-974-552.7l-2.5-1.2l4.6-7.7l5.9,3.4
		c3.2,1.8,4.5,5.8,3.1,9c-5.3,11.9-5.9,29.5,1.6,36.9c4.7,4.6,10.9,6.9,17.1,6.9c6.2,0,12.4-2.3,17.1-6.9c7.5-7.4,6.9-25,1.6-36.9
		c-1.4-3.2-0.1-7.2,3.1-9l5.9-3.4l4.6,7.7l-2.5,1.2c-1.1,0.6-1.6,1.9-1.1,3.1c2.3,5.3,4.6,11.6,4.6,18.1c0,10.7-3.3,20.1-9.2,25.9
		c-13.2,13-34.8,13-48,0c-5.9-5.8-9.2-15.2-9.2-25.9c0-6.6,2.3-12.8,4.5-18.1C-972.4-550.8-972.9-552.1-974-552.7L-974-552.7z"/>
	<path class="st2" d="M-951.9-499.3c1.3,0.3,2.6-0.4,2.9-1.7s-0.4-2.6-1.7-2.9c-3.1-0.8-6.1-2.2-8.7-4.1c-0.4-0.3-0.9-0.4-1.4-0.4
		c-0.7,0-1.5,0.3-1.9,1c-0.8,1.1-0.5,2.5,0.5,3.3C-959.1-501.9-955.6-500.3-951.9-499.3L-951.9-499.3z"/>
	<path class="st2" d="M-936.5-499.3c3.7-1,7.2-2.6,10.3-4.8c1.1-0.8,1.3-2.2,0.5-3.3c-0.5-0.6-1.2-1-1.9-1c-0.5,0-1,0.1-1.4,0.4
		c-2.6,1.9-5.6,3.3-8.7,4.1c-1.3,0.3-2,1.6-1.7,2.9C-939-499.7-937.7-499-936.5-499.3L-936.5-499.3z"/>
</g>
<rect class="st3" width="1242" height="2208"/>
<linearGradient id="SVGID_1_" gradientUnits="userSpaceOnUse" x1="621" y1="2208" x2="621" y2="-9.094947e-13">
	<stop  offset="0" style="stop-color:#253E93"/>
	<stop  offset="0.8652" style="stop-color:#FFFFFF;stop-opacity:0"/>
</linearGradient>
<rect x="0" class="st4" width="1242" height="2208"/>
</svg>
