<?xml version="1.0" encoding="utf-8"?>
<!-- Generator: Adobe Illustrator 22.0.1, SVG Export Plug-In . SVG Version: 6.00 Build 0)  -->
<svg version="1.1" id="Layer_1" xmlns="http://www.w3.org/2000/svg" xmlns:xlink="http://www.w3.org/1999/xlink" x="0px" y="0px"
	 viewBox="0 0 1242 2208" style="enable-background:new 0 0 1242 2208;" xml:space="preserve">
<style type="text/css">
	.st0{fill:none;}
	.st1{fill:#4D4D4D;}
	.st2{fill:#999999;}
	.st3{fill:url(#New_Pattern_Swatch_26);}
	.st4{fill:url(#SVGID_1_);}
</style>
<pattern  width="360" height="360" patternUnits="userSpaceOnUse" id="New_Pattern_Swatch_26" viewBox="0 -360 360 360" style="overflow:visible;">
	<g>
		<rect y="-360" class="st0" width="360" height="360"/>
		<rect y="-360" class="st1" width="360" height="360"/>
		<g>
			<path class="st2" d="M141-299c-2.8,0-5-2.2-5-5s2.2-5,5-5c2.8,0,5,2.2,5,5S143.7-299,141-299z"/>
			<path class="st2" d="M46-304c0,2.8-2.2,5-5,5c-2.8,0-5-2.2-5-5s2.2-5,5-5C43.8-309,46-306.7,46-304z"/>
			<path class="st2" d="M151-244c0,2.8-2.2,5-5,5s-5-2.2-5-5s2.2-5,5-5S151-246.8,151-244z"/>
			<path class="st2" d="M146-224c0,2.8-2.2,5-5,5c-2.8,0-5-2.2-5-5s2.2-5,5-5C143.7-229,146-226.8,146-224z"/>
			<path class="st2" d="M36-239c-2.8,0-5-2.2-5-5s2.2-5,5-5c2.8,0,5,2.2,5,5C41-241.2,38.8-239,36-239z"/>
			<path class="st2" d="M41-229c2.8,0,5,2.2,5,5s-2.2,5-5,5c-2.8,0-5-2.2-5-5C36-226.8,38.2-229,41-229z"/>
			<path class="st2" d="M96-329c0,2.8-2.2,5-5,5s-5-2.2-5-5s2.2-5,5-5S96-331.7,96-329z"/>
			<path class="st2" d="M170.8-220.4c0.4,1.3,0.2,2.8-0.5,4l-15,25c-0.9,1.6-2.6,2.4-4.3,2.4c-0.8,0-1.7-0.2-2.5-0.7l-16.7-9.5
				c-11.1-6.3-15.8-20.3-10.7-31.7c9.6-21.4,11.1-54.3-1.2-66.4c-16-15.7-41.9-15.7-57.9,0c-12.3,12.1-10.8,45-1.2,66.4
				c5.1,11.4,0.4,25.3-10.7,31.7l-16.7,9.5c-2.4,1.4-5.4,0.6-6.8-1.8l-15-25c-0.7-1.2-0.9-2.6-0.5-4c0.4-1.3,1.3-2.5,2.6-3.1
				l5.8-2.9c-4.5-11.1-8.6-24-8.6-37.6c0-25.1,8.1-47.6,22.4-61.6c31.7-31.1,83.4-31.1,115.2,0c14.3,14,22.4,36.5,22.4,61.6
				c0,13.8-4.1,26.6-8.5,37.6l5.8,2.9C169.5-222.8,170.4-221.7,170.8-220.4L170.8-220.4z M153.7-219.5c-2.4-1.2-3.4-4-2.4-6.4
				c4.7-11.1,9.5-24.2,9.5-38.1c0.1-22.5-7-42.3-19.4-54.4c-27.9-27.3-73.3-27.3-101.1,0C28-306.3,21-286.5,21-264
				c0,13.7,4.9,26.9,9.6,38c1,2.4,0,5.2-2.4,6.4l-5.2,2.6l9.7,16.2l12.4-7.1c6.7-3.8,9.6-12.1,6.5-18.9c-11.2-25-12.5-62.1,3.3-77.6
				C65-314.1,78-318.9,91-318.9c13,0,26,4.9,35.9,14.6c15.8,15.5,14.5,52.7,3.3,77.6c-3,6.8-0.2,15.1,6.5,18.9l12.4,7.1l9.7-16.2
				L153.7-219.5L153.7-219.5z"/>
			<path class="st2" d="M107.2-331.9c7.8,2,15.1,5.4,21.7,10.1c2.2,1.6,2.8,4.7,1.1,7c-1,1.4-2.5,2.1-4.1,2.1c-1,0-2-0.3-2.9-0.9
				c-5.6-4-11.7-6.9-18.3-8.6c-2.7-0.7-4.3-3.4-3.6-6.1C101.8-331,104.5-332.6,107.2-331.9L107.2-331.9z"/>
			<path class="st2" d="M74.7-331.9c2.7-0.7,5.4,0.9,6.1,3.6c0.7,2.7-0.9,5.4-3.6,6.1c-6.6,1.7-12.8,4.6-18.3,8.6
				c-0.9,0.6-1.9,0.9-2.9,0.9c-1.6,0-3.1-0.7-4.1-2.1c-1.6-2.2-1.1-5.4,1.1-7C59.7-326.5,66.9-329.9,74.7-331.9L74.7-331.9z"/>
		</g>
		<g>
			<path class="st2" d="M219-238.9c2.8,0,5,2.2,5,5s-2.2,5-5,5c-2.8,0-5-2.2-5-5S216.2-238.9,219-238.9z"/>
			<path class="st2" d="M314-233.9c0-2.8,2.2-5,5-5c2.8,0,5,2.2,5,5s-2.2,5-5,5S314-231.2,314-233.9z"/>
			<path class="st2" d="M209-293.9c0-2.8,2.2-5,5-5c2.8,0,5,2.2,5,5c0,2.8-2.2,5-5,5C211.2-288.9,209-291.2,209-293.9z"/>
			<path class="st2" d="M214-313.9c0-2.8,2.2-5,5-5c2.8,0,5,2.2,5,5c0,2.8-2.2,5-5,5C216.2-308.9,214-311.2,214-313.9z"/>
			<path class="st2" d="M324-298.9c2.8,0,5,2.2,5,5c0,2.8-2.2,5-5,5s-5-2.2-5-5C319-296.7,321.2-298.9,324-298.9z"/>
			<path class="st2" d="M319-308.9c-2.8,0-5-2.2-5-5c0-2.8,2.2-5,5-5s5,2.2,5,5C324-311.2,321.7-308.9,319-308.9z"/>
			<path class="st2" d="M264-209c0-2.8,2.2-5,5-5s5,2.2,5,5s-2.2,5-5,5S264-206.2,264-209z"/>
			<path class="st2" d="M189.2-317.5c-0.4-1.3-0.2-2.8,0.5-4l15-25c0.9-1.6,2.6-2.4,4.3-2.4c0.8,0,1.7,0.2,2.5,0.7l16.7,9.5
				c11.1,6.3,15.8,20.3,10.7,31.7c-9.6,21.4-11.1,54.3,1.2,66.4c16,15.7,41.9,15.7,57.9,0c12.3-12.1,10.8-45,1.2-66.4
				c-5.1-11.4-0.4-25.3,10.7-31.7l16.7-9.5c2.4-1.4,5.4-0.6,6.8,1.8l15,25c0.7,1.2,0.9,2.6,0.5,4c-0.4,1.3-1.3,2.5-2.6,3.1l-5.8,2.9
				c4.5,11.1,8.6,24,8.6,37.6c0,25.1-8.1,47.6-22.4,61.6c-31.7,31.1-83.4,31.1-115.2,0c-14.3-14-22.4-36.5-22.4-61.6
				c0-13.8,4.1-26.6,8.5-37.6l-5.8-2.9C190.5-315.1,189.6-316.2,189.2-317.5L189.2-317.5z M206.2-318.4c2.4,1.2,3.4,4,2.4,6.4
				c-4.7,11.1-9.5,24.2-9.5,38.1c-0.1,22.5,7,42.3,19.4,54.4c27.9,27.3,73.3,27.3,101.1,0c12.4-12.1,19.4-32,19.4-54.4
				c0-13.7-4.9-26.9-9.6-38c-1-2.4,0-5.2,2.4-6.4l5.2-2.6l-9.7-16.2l-12.4,7.1c-6.7,3.8-9.6,12.1-6.5,18.9
				c11.2,25,12.5,62.1-3.3,77.6C295-223.8,282-219,269-219c-13,0-26-4.9-35.9-14.6c-15.8-15.5-14.5-52.7-3.3-77.6
				c3-6.8,0.2-15.1-6.5-18.9l-12.4-7.1l-9.7,16.2L206.2-318.4L206.2-318.4z"/>
			<path class="st2" d="M252.7-206c-7.8-2-15.1-5.4-21.7-10.1c-2.2-1.6-2.8-4.7-1.1-7c1-1.4,2.5-2.1,4.1-2.1c1,0,2,0.3,2.9,0.9
				c5.6,4,11.7,6.9,18.3,8.6c2.7,0.7,4.3,3.4,3.6,6.1S255.4-205.3,252.7-206L252.7-206z"/>
			<path class="st2" d="M285.2-206c-2.7,0.7-5.4-0.9-6.1-3.6c-0.7-2.7,0.9-5.4,3.6-6.1c6.6-1.7,12.8-4.6,18.3-8.6
				c0.9-0.6,1.9-0.9,2.9-0.9c1.6,0,3.1,0.7,4.1,2.1c1.6,2.2,1.1,5.4-1.1,7C300.3-211.4,293-208,285.2-206L285.2-206z"/>
		</g>
		<g>
			<path class="st2" d="M139-121c-2.8,0-5-2.2-5-5c0-2.8,2.2-5,5-5c2.8,0,5,2.2,5,5C144-123.2,141.7-121,139-121z"/>
			<path class="st2" d="M44-126c0,2.8-2.2,5-5,5c-2.8,0-5-2.2-5-5c0-2.8,2.2-5,5-5C41.8-131,44-128.7,44-126z"/>
			<path class="st2" d="M149-66c0,2.8-2.2,5-5,5s-5-2.2-5-5c0-2.8,2.2-5,5-5S149-68.8,149-66z"/>
			<path class="st2" d="M144-46c0,2.8-2.2,5-5,5c-2.8,0-5-2.2-5-5c0-2.8,2.2-5,5-5C141.7-51,144-48.8,144-46z"/>
			<path class="st2" d="M34-61c-2.8,0-5-2.2-5-5c0-2.8,2.2-5,5-5c2.8,0,5,2.2,5,5C39-63.2,36.8-61,34-61z"/>
			<path class="st2" d="M39-51c2.8,0,5,2.2,5,5c0,2.8-2.2,5-5,5c-2.8,0-5-2.2-5-5C34-48.8,36.2-51,39-51z"/>
			<path class="st2" d="M94-151c0,2.8-2.2,5-5,5s-5-2.2-5-5c0-2.8,2.2-5,5-5S94-153.7,94-151z"/>
			<path class="st2" d="M168.8-42.4c0.4,1.3,0.2,2.8-0.5,4l-15,25c-0.9,1.6-2.6,2.4-4.3,2.4c-0.8,0-1.7-0.2-2.5-0.7l-16.7-9.5
				c-11.1-6.3-15.8-20.3-10.7-31.7c9.6-21.4,11.1-54.3-1.2-66.4c-16-15.7-41.9-15.7-57.9,0c-12.3,12.1-10.8,45-1.2,66.4
				c5.1,11.4,0.4,25.3-10.7,31.7l-16.7,9.5c-2.4,1.4-5.4,0.6-6.8-1.8l-15-25c-0.7-1.2-0.9-2.6-0.5-4c0.4-1.3,1.3-2.5,2.6-3.1
				l5.8-2.9C13.1-59.5,9-72.3,9-86c0-25.1,8.1-47.6,22.4-61.6c31.7-31.1,83.4-31.1,115.2,0c14.3,14,22.4,36.5,22.4,61.6
				c0,13.8-4.1,26.6-8.5,37.6l5.8,2.9C167.5-44.8,168.4-43.7,168.8-42.4L168.8-42.4z M151.7-41.5c-2.4-1.2-3.4-4-2.4-6.4
				c4.7-11.1,9.5-24.2,9.5-38.1c0.1-22.5-7-42.3-19.4-54.4c-27.9-27.3-73.3-27.3-101.1,0C26-128.3,19-108.5,19-86
				c0,13.7,4.9,26.9,9.6,38c1,2.4,0,5.2-2.4,6.4l-5.2,2.6l9.7,16.2l12.4-7.1c6.7-3.8,9.6-12.1,6.5-18.9c-11.2-25-12.5-62.1,3.3-77.6
				C63-136.1,76-140.9,89-140.9c13,0,26,4.9,35.9,14.6c15.8,15.5,14.5,52.7,3.3,77.6c-3,6.8-0.2,15.1,6.5,18.9l12.4,7.1l9.7-16.2
				L151.7-41.5L151.7-41.5z"/>
			<path class="st2" d="M105.2-153.9c7.8,2,15.1,5.4,21.7,10.1c2.2,1.6,2.8,4.7,1.1,7c-1,1.4-2.5,2.1-4.1,2.1c-1,0-2-0.3-2.9-0.9
				c-5.6-4-11.7-6.9-18.3-8.6c-2.7-0.7-4.3-3.4-3.6-6.1C99.8-153,102.5-154.6,105.2-153.9L105.2-153.9z"/>
			<path class="st2" d="M72.7-153.9c2.7-0.7,5.4,0.9,6.1,3.6c0.7,2.7-0.9,5.4-3.6,6.1c-6.6,1.7-12.8,4.6-18.3,8.6
				c-0.9,0.6-1.9,0.9-2.9,0.9c-1.6,0-3.1-0.7-4.1-2.1c-1.6-2.2-1.1-5.4,1.1-7C57.7-148.5,64.9-151.9,72.7-153.9L72.7-153.9z"/>
		</g>
		<g>
			<path class="st2" d="M217-60.9c2.8,0,5,2.2,5,5s-2.2,5-5,5c-2.8,0-5-2.2-5-5S214.2-60.9,217-60.9z"/>
			<path class="st2" d="M312-55.9c0-2.8,2.2-5,5-5c2.8,0,5,2.2,5,5s-2.2,5-5,5C314.2-50.9,312-53.2,312-55.9z"/>
			<path class="st2" d="M207-115.9c0-2.8,2.2-5,5-5c2.8,0,5,2.2,5,5s-2.2,5-5,5C209.2-110.9,207-113.2,207-115.9z"/>
			<path class="st2" d="M212-135.9c0-2.8,2.2-5,5-5c2.8,0,5,2.2,5,5s-2.2,5-5,5C214.2-130.9,212-133.2,212-135.9z"/>
			<path class="st2" d="M322-120.9c2.8,0,5,2.2,5,5s-2.2,5-5,5s-5-2.2-5-5C317-118.7,319.2-120.9,322-120.9z"/>
			<path class="st2" d="M317-130.9c-2.8,0-5-2.2-5-5s2.2-5,5-5s5,2.2,5,5C322-133.2,319.7-130.9,317-130.9z"/>
			<path class="st2" d="M262-31c0-2.8,2.2-5,5-5s5,2.2,5,5s-2.2,5-5,5S262-28.2,262-31z"/>
			<path class="st2" d="M187.2-139.5c-0.4-1.3-0.2-2.8,0.5-4l15-25c0.9-1.6,2.6-2.4,4.3-2.4c0.8,0,1.7,0.2,2.5,0.7l16.7,9.5
				c11.1,6.3,15.8,20.3,10.7,31.7c-9.6,21.4-11.1,54.3,1.2,66.4c16,15.7,41.9,15.7,57.9,0c12.3-12.1,10.8-45,1.2-66.4
				c-5.1-11.4-0.4-25.3,10.7-31.7l16.7-9.5c2.4-1.4,5.4-0.6,6.8,1.8l15,25c0.7,1.2,0.9,2.6,0.5,4c-0.4,1.3-1.3,2.5-2.6,3.1l-5.8,2.9
				c4.5,11.1,8.6,24,8.6,37.6c0,25.1-8.1,47.6-22.4,61.6c-31.7,31.1-83.4,31.1-115.2,0c-14.3-14-22.4-36.5-22.4-61.6
				c0-13.8,4.1-26.6,8.5-37.6l-5.8-2.9C188.5-137.1,187.6-138.2,187.2-139.5L187.2-139.5z M204.2-140.4c2.4,1.2,3.4,4,2.4,6.4
				c-4.7,11.1-9.5,24.2-9.5,38.1c-0.1,22.5,7,42.3,19.4,54.4c27.9,27.3,73.3,27.3,101.1,0c12.4-12.1,19.4-32,19.4-54.4
				c0-13.7-4.9-26.9-9.6-38c-1-2.4,0-5.2,2.4-6.4l5.2-2.6l-9.7-16.2l-12.4,7.1c-6.7,3.8-9.6,12.1-6.5,18.9
				c11.2,25,12.5,62.1-3.3,77.6C293-45.8,280-41,267-41c-13,0-26-4.9-35.9-14.6c-15.8-15.5-14.5-52.7-3.3-77.6
				c3-6.8,0.2-15.1-6.5-18.9l-12.4-7.1l-9.7,16.2L204.2-140.4L204.2-140.4z"/>
			<path class="st2" d="M250.7-28c-7.8-2-15.1-5.4-21.7-10.1c-2.2-1.6-2.8-4.7-1.1-7c1-1.4,2.5-2.1,4.1-2.1c1,0,2,0.3,2.9,0.9
				c5.6,4,11.7,6.9,18.3,8.6c2.7,0.7,4.3,3.4,3.6,6.1C256.1-28.9,253.4-27.3,250.7-28L250.7-28z"/>
			<path class="st2" d="M283.2-28c-2.7,0.7-5.4-0.9-6.1-3.6c-0.7-2.7,0.9-5.4,3.6-6.1c6.6-1.7,12.8-4.6,18.3-8.6
				c0.9-0.6,1.9-0.9,2.9-0.9c1.6,0,3.1,0.7,4.1,2.1c1.6,2.2,1.1,5.4-1.1,7C298.3-33.4,291-30,283.2-28L283.2-28z"/>
		</g>
	</g>
</pattern>
<rect x="-1071" y="-657" class="st1" width="360" height="360"/>
<g>
	<path class="st2" d="M-925-601c0-2.8-2.2-5-5-5c-2.8,0-5,2.2-5,5c0,2.8,2.2,5,5,5C-927.3-596-925-598.2-925-601z"/>
	<path class="st2" d="M-1030-606c-2.8,0-5,2.2-5,5c0,2.8,2.2,5,5,5s5-2.2,5-5C-1025-603.7-1027.2-606-1030-606z"/>
	<path class="st2" d="M-925-546c-2.8,0-5,2.2-5,5c0,2.8,2.2,5,5,5c2.8,0,5-2.2,5-5C-920-543.8-922.3-546-925-546z"/>
	<path class="st2" d="M-930-526c-2.8,0-5,2.2-5,5c0,2.8,2.2,5,5,5c2.8,0,5-2.2,5-5C-925-523.8-927.3-526-930-526z"/>
	<path class="st2" d="M-1030-541c0-2.8-2.2-5-5-5s-5,2.2-5,5c0,2.8,2.2,5,5,5S-1030-538.2-1030-541z"/>
	<path class="st2" d="M-1035-521c0,2.8,2.2,5,5,5s5-2.2,5-5c0-2.8-2.2-5-5-5C-1032.8-526-1035-523.8-1035-521z"/>
	<path class="st2" d="M-980-631c-2.8,0-5,2.2-5,5c0,2.8,2.2,5,5,5c2.8,0,5-2.2,5-5C-975-628.7-977.2-631-980-631z"/>
	<path class="st2" d="M-900.2-517.4c-0.4-1.3-1.3-2.5-2.6-3.1l-5.8-2.9c4.4-11,8.5-23.8,8.5-37.6c0.1-25.2-8.1-47.6-22.4-61.6
		c-31.7-31.1-83.4-31.1-115.2,0c-14.3,14-22.4,36.4-22.4,61.6c0,13.6,4.1,26.5,8.6,37.6l-5.8,2.9c-1.2,0.6-2.2,1.7-2.6,3.1
		c-0.4,1.3-0.2,2.8,0.5,4l15,25c1.4,2.3,4.4,3.1,6.8,1.8l16.7-9.5c11.1-6.3,15.8-20.3,10.7-31.7c-9.6-21.4-11.1-54.3,1.2-66.4
		c16-15.7,41.9-15.7,57.9,0c12.3,12.1,10.8,45,1.2,66.4c-5.1,11.4-0.4,25.3,10.7,31.7l16.7,9.5c0.8,0.4,1.6,0.7,2.5,0.7
		c1.7,0,3.4-0.9,4.3-2.4l15-25C-900-514.6-899.8-516.1-900.2-517.4L-900.2-517.4z M-917.3-516.5l5.2,2.6l-9.7,16.2l-12.4-7.1
		c-6.7-3.8-9.6-12.1-6.5-18.9c11.2-25,12.5-62.1-3.3-77.6c-9.9-9.7-22.9-14.6-35.9-14.6c-13,0-26,4.9-35.9,14.6
		c-15.8,15.5-14.5,52.7-3.3,77.6c3,6.8,0.2,15.1-6.5,18.9l-12.4,7.1l-9.7-16.2l5.2-2.6c2.4-1.2,3.4-4,2.4-6.4
		c-4.7-11.1-9.6-24.4-9.6-38c0-22.5,7-42.3,19.4-54.4c27.9-27.3,73.3-27.3,101.1,0c12.4,12.1,19.4,32,19.4,54.4
		c0,13.8-4.8,27-9.5,38C-920.7-520.5-919.6-517.7-917.3-516.5L-917.3-516.5z"/>
	<path class="st2" d="M-963.8-628.9c-2.7-0.7-5.4,0.9-6.1,3.6c-0.7,2.7,0.9,5.4,3.6,6.1c6.6,1.7,12.8,4.6,18.3,8.6
		c0.9,0.6,1.9,0.9,2.9,0.9c1.6,0,3.1-0.7,4.1-2.1c1.6-2.2,1.1-5.4-1.1-7C-948.7-623.5-956-626.9-963.8-628.9L-963.8-628.9z"/>
	<path class="st2" d="M-996.3-628.9c-7.8,2-15.1,5.4-21.7,10.1c-2.2,1.6-2.8,4.7-1.1,7c1,1.4,2.5,2.1,4.1,2.1c1,0,2-0.3,2.9-0.9
		c5.6-4,11.7-6.9,18.3-8.6c2.7-0.7,4.3-3.4,3.6-6.1C-990.9-628-993.6-629.6-996.3-628.9L-996.3-628.9z"/>
</g>
<g>
	<path class="st2" d="M-857-530.9c0,2.8,2.2,5,5,5c2.8,0,5-2.2,5-5c0-2.8-2.2-5-5-5C-854.8-535.9-857-533.7-857-530.9z"/>
	<path class="st2" d="M-752-525.9c2.8,0,5-2.2,5-5c0-2.8-2.2-5-5-5c-2.8,0-5,2.2-5,5C-757-528.2-754.8-525.9-752-525.9z"/>
	<path class="st2" d="M-857-585.9c2.8,0,5-2.2,5-5c0-2.8-2.2-5-5-5c-2.8,0-5,2.2-5,5C-862-588.2-859.8-585.9-857-585.9z"/>
	<path class="st2" d="M-852-605.9c2.8,0,5-2.2,5-5c0-2.8-2.2-5-5-5c-2.8,0-5,2.2-5,5C-857-608.2-854.8-605.9-852-605.9z"/>
	<path class="st2" d="M-752-590.9c0,2.8,2.2,5,5,5s5-2.2,5-5c0-2.8-2.2-5-5-5C-749.8-595.9-752-593.7-752-590.9z"/>
	<path class="st2" d="M-747-610.9c0-2.8-2.2-5-5-5c-2.8,0-5,2.2-5,5c0,2.8,2.2,5,5,5C-749.3-605.9-747-608.2-747-610.9z"/>
	<path class="st2" d="M-802-501c2.8,0,5-2.2,5-5s-2.2-5-5-5c-2.8,0-5,2.2-5,5S-804.8-501-802-501z"/>
	<path class="st2" d="M-881.8-614.5c0.4,1.3,1.3,2.5,2.6,3.1l5.8,2.9c-4.4,11-8.5,23.8-8.5,37.6c-0.1,25.2,8.1,47.6,22.4,61.6
		c31.7,31.1,83.4,31.1,115.2,0c14.3-14,22.4-36.4,22.4-61.6c0-13.6-4.1-26.5-8.6-37.6l5.8-2.9c1.2-0.6,2.2-1.7,2.6-3.1
		c0.4-1.3,0.2-2.8-0.5-4l-15-25c-1.4-2.3-4.4-3.1-6.8-1.8l-16.7,9.5c-11.1,6.3-15.8,20.3-10.7,31.7c9.6,21.4,11.1,54.3-1.2,66.4
		c-16,15.7-41.9,15.7-57.9,0c-12.3-12.1-10.8-45-1.2-66.4c5.1-11.4,0.4-25.3-10.7-31.7l-16.7-9.5c-0.8-0.4-1.6-0.7-2.5-0.7
		c-1.7,0-3.4,0.9-4.3,2.4l-15,25C-882-617.3-882.2-615.9-881.8-614.5L-881.8-614.5z M-864.8-615.4l-5.2-2.6l9.7-16.2l12.4,7.1
		c6.7,3.8,9.6,12.1,6.5,18.9c-11.2,25-12.5,62.1,3.3,77.6C-828-520.8-815-516-802-516c13,0,26-4.9,35.9-14.6
		c15.8-15.5,14.5-52.7,3.3-77.6c-3-6.8-0.2-15.1,6.5-18.9l12.4-7.1l9.7,16.2l-5.2,2.6c-2.4,1.2-3.4,4-2.4,6.4
		c4.7,11.1,9.6,24.4,9.6,38c0,22.5-7,42.3-19.4,54.4c-27.9,27.3-73.3,27.3-101.1,0c-12.4-12.1-19.4-32-19.4-54.4
		c0-13.8,4.8-27,9.5-38C-861.4-611.4-862.4-614.2-864.8-615.4L-864.8-615.4z"/>
	<path class="st2" d="M-818.3-503c2.7,0.7,5.4-0.9,6.1-3.6c0.7-2.7-0.9-5.4-3.6-6.1c-6.6-1.7-12.8-4.6-18.3-8.6
		c-0.9-0.6-1.9-0.9-2.9-0.9c-1.6,0-3.1,0.7-4.1,2.1c-1.6,2.2-1.1,5.4,1.1,7C-833.3-508.4-826.1-505-818.3-503L-818.3-503z"/>
	<path class="st2" d="M-785.8-503c7.8-2,15.1-5.4,21.7-10.1c2.2-1.6,2.8-4.7,1.1-7c-1-1.4-2.5-2.1-4.1-2.1c-1,0-2,0.3-2.9,0.9
		c-5.6,4-11.7,6.9-18.3,8.6c-2.7,0.7-4.3,3.4-3.6,6.1C-791.2-503.9-788.5-502.3-785.8-503L-785.8-503z"/>
</g>
<g>
	<path class="st2" d="M-927-423c0-2.8-2.2-5-5-5c-2.8,0-5,2.2-5,5s2.2,5,5,5C-929.3-418-927-420.2-927-423z"/>
	<path class="st2" d="M-1032-428c-2.8,0-5,2.2-5,5s2.2,5,5,5s5-2.2,5-5S-1029.2-428-1032-428z"/>
	<path class="st2" d="M-927-368c-2.8,0-5,2.2-5,5s2.2,5,5,5c2.8,0,5-2.2,5-5C-922-365.8-924.3-368-927-368z"/>
	<path class="st2" d="M-932-348c-2.8,0-5,2.2-5,5s2.2,5,5,5c2.8,0,5-2.2,5-5C-927-345.8-929.3-348-932-348z"/>
	<path class="st2" d="M-1032-363c0-2.8-2.2-5-5-5s-5,2.2-5,5s2.2,5,5,5S-1032-360.2-1032-363z"/>
	<path class="st2" d="M-1037-343c0,2.8,2.2,5,5,5s5-2.2,5-5s-2.2-5-5-5C-1034.8-348-1037-345.8-1037-343z"/>
	<path class="st2" d="M-982-453c-2.8,0-5,2.2-5,5s2.2,5,5,5c2.8,0,5-2.2,5-5S-979.2-453-982-453z"/>
	<path class="st2" d="M-902.2-339.4c-0.4-1.3-1.3-2.5-2.6-3.1l-5.8-2.9c4.4-11,8.5-23.8,8.5-37.6c0.1-25.2-8.1-47.6-22.4-61.6
		c-31.7-31.1-83.4-31.1-115.2,0c-14.3,14-22.4,36.4-22.4,61.6c0,13.6,4.1,26.5,8.6,37.6l-5.8,2.9c-1.2,0.6-2.2,1.7-2.6,3.1
		c-0.4,1.3-0.2,2.8,0.5,4l15,25c1.4,2.3,4.4,3.1,6.8,1.8l16.7-9.5c11.1-6.3,15.8-20.3,10.7-31.7c-9.6-21.4-11.1-54.3,1.2-66.4
		c16-15.7,41.9-15.7,57.9,0c12.3,12.1,10.8,45,1.2,66.4c-5.1,11.4-0.4,25.3,10.7,31.7l16.7,9.5c0.8,0.4,1.6,0.7,2.5,0.7
		c1.7,0,3.4-0.9,4.3-2.4l15-25C-902-336.6-901.8-338.1-902.2-339.4L-902.2-339.4z M-919.3-338.5l5.2,2.6l-9.7,16.2l-12.4-7.1
		c-6.7-3.8-9.6-12.1-6.5-18.9c11.2-25,12.5-62.1-3.3-77.6c-9.9-9.7-22.9-14.6-35.9-14.6c-13,0-26,4.9-35.9,14.6
		c-15.8,15.5-14.5,52.7-3.3,77.6c3,6.8,0.2,15.1-6.5,18.9l-12.4,7.1l-9.7-16.2l5.2-2.6c2.4-1.2,3.4-4,2.4-6.4
		c-4.7-11.1-9.6-24.4-9.6-38c0-22.5,7-42.3,19.4-54.4c27.9-27.3,73.3-27.3,101.1,0c12.4,12.1,19.4,32,19.4,54.4
		c0,13.8-4.8,27-9.5,38.1C-922.7-342.5-921.6-339.7-919.3-338.5L-919.3-338.5z"/>
	<path class="st2" d="M-965.8-450.9c-2.7-0.7-5.4,0.9-6.1,3.6c-0.7,2.7,0.9,5.4,3.6,6.1c6.6,1.7,12.8,4.6,18.3,8.6
		c0.9,0.6,1.9,0.9,2.9,0.9c1.6,0,3.1-0.7,4.1-2.1c1.6-2.2,1.1-5.4-1.1-7C-950.7-445.5-958-448.9-965.8-450.9L-965.8-450.9z"/>
	<path class="st2" d="M-998.3-450.9c-7.8,2-15.1,5.4-21.7,10.1c-2.2,1.6-2.8,4.7-1.1,7c1,1.4,2.5,2.1,4.1,2.1c1,0,2-0.3,2.9-0.9
		c5.6-4,11.7-6.9,18.3-8.6c2.7-0.7,4.3-3.4,3.6-6.1C-992.9-450-995.6-451.6-998.3-450.9L-998.3-450.9z"/>
</g>
<g>
	<path class="st2" d="M-859-352.9c0,2.8,2.2,5,5,5c2.8,0,5-2.2,5-5c0-2.8-2.2-5-5-5C-856.8-357.9-859-355.7-859-352.9z"/>
	<path class="st2" d="M-754-347.9c2.8,0,5-2.2,5-5c0-2.8-2.2-5-5-5c-2.8,0-5,2.2-5,5C-759-350.2-756.8-347.9-754-347.9z"/>
	<path class="st2" d="M-859-407.9c2.8,0,5-2.2,5-5c0-2.8-2.2-5-5-5c-2.8,0-5,2.2-5,5C-864-410.2-861.8-407.9-859-407.9z"/>
	<path class="st2" d="M-854-427.9c2.8,0,5-2.2,5-5c0-2.8-2.2-5-5-5c-2.8,0-5,2.2-5,5C-859-430.2-856.8-427.9-854-427.9z"/>
	<path class="st2" d="M-754-412.9c0,2.8,2.2,5,5,5s5-2.2,5-5c0-2.8-2.2-5-5-5C-751.8-417.9-754-415.7-754-412.9z"/>
	<path class="st2" d="M-749-432.9c0-2.8-2.2-5-5-5c-2.8,0-5,2.2-5,5c0,2.8,2.2,5,5,5C-751.3-427.9-749-430.2-749-432.9z"/>
	<path class="st2" d="M-804-323c2.8,0,5-2.2,5-5s-2.2-5-5-5c-2.8,0-5,2.2-5,5S-806.8-323-804-323z"/>
	<path class="st2" d="M-883.8-436.5c0.4,1.3,1.3,2.5,2.6,3.1l5.8,2.9c-4.4,11-8.5,23.8-8.5,37.6c-0.1,25.2,8.1,47.6,22.4,61.6
		c31.7,31.1,83.4,31.1,115.2,0c14.3-14,22.4-36.4,22.4-61.6c0-13.6-4.1-26.5-8.6-37.6l5.8-2.9c1.2-0.6,2.2-1.7,2.6-3.1
		c0.4-1.3,0.2-2.8-0.5-4l-15-25c-1.4-2.3-4.4-3.1-6.8-1.8l-16.7,9.5c-11.1,6.3-15.8,20.3-10.7,31.7c9.6,21.4,11.1,54.3-1.2,66.4
		c-16,15.7-41.9,15.7-57.9,0c-12.3-12.1-10.8-45-1.2-66.4c5.1-11.4,0.4-25.3-10.7-31.7l-16.7-9.5c-0.8-0.4-1.6-0.7-2.5-0.7
		c-1.7,0-3.4,0.9-4.3,2.4l-15,25C-884-439.3-884.2-437.9-883.8-436.5L-883.8-436.5z M-866.8-437.4l-5.2-2.6l9.7-16.2l12.4,7.1
		c6.7,3.8,9.6,12.1,6.5,18.9c-11.2,25-12.5,62.1,3.3,77.6C-830-342.8-817-338-804-338c13,0,26-4.9,35.9-14.6
		c15.8-15.5,14.5-52.7,3.3-77.6c-3-6.8-0.2-15.1,6.5-18.9l12.4-7.1l9.7,16.2l-5.2,2.6c-2.4,1.2-3.4,4-2.4,6.4
		c4.7,11.1,9.6,24.4,9.6,38c0,22.5-7,42.3-19.4,54.4c-27.9,27.3-73.3,27.3-101.1,0c-12.4-12.1-19.4-32-19.4-54.4
		c0-13.8,4.8-27,9.5-38.1C-863.4-433.4-864.4-436.2-866.8-437.4L-866.8-437.4z"/>
	<path class="st2" d="M-820.3-325c2.7,0.7,5.4-0.9,6.1-3.6c0.7-2.7-0.9-5.4-3.6-6.1c-6.6-1.7-12.8-4.6-18.3-8.6
		c-0.9-0.6-1.9-0.9-2.9-0.9c-1.6,0-3.1,0.7-4.1,2.1c-1.6,2.2-1.1,5.4,1.1,7C-835.3-330.4-828.1-327-820.3-325L-820.3-325z"/>
	<path class="st2" d="M-787.8-325c7.8-2,15.1-5.4,21.7-10.1c2.2-1.6,2.8-4.7,1.1-7c-1-1.4-2.5-2.1-4.1-2.1c-1,0-2,0.3-2.9,0.9
		c-5.6,4-11.7,6.9-18.3,8.6c-2.7,0.7-4.3,3.4-3.6,6.1C-793.2-325.9-790.5-324.3-787.8-325L-787.8-325z"/>
</g>
<rect class="st3" width="1242" height="2208"/>
<linearGradient id="SVGID_1_" gradientUnits="userSpaceOnUse" x1="621" y1="2208" x2="621" y2="0">
	<stop  offset="0" style="stop-color:#3DAAE0"/>
	<stop  offset="0.8652" style="stop-color:#FFFFFF;stop-opacity:0"/>
</linearGradient>
<rect x="0" y="0" class="st4" width="1242" height="2208"/>
</svg>
